<svg data-v-decfdd8a="" version="1.0" xmlns="http://www.w3.org/2000/svg" xmlns:xlink="http://www.w3.org/1999/xlink" width="100%" height="100%" viewBox="0 0 340.000000 250.000000" preserveAspectRatio="xMidYMid meet" color-interpolation-filters="sRGB" style="margin: auto;">   <g data-v-decfdd8a="" fill="#fc51fa" class="icon-text-wrapper icon-svg-group iconsvg" transform="translate(78.625,69.69314193725586)"><g class="iconsvg-imagesvg" transform="translate(61.375,0)" mask="url(#9a8db7a0-3013-48c8-9cec-0f82218a2692)"><g><rect fill="#fc51fa" fill-opacity="0" stroke-width="2" x="0" y="0" width="60" height="60.000600006000056" class="image-rect"></rect> <svg filter="url(#colors9698682134)" x="0" y="0" width="60" height="60.000600006000056" filtersec="colorsf5985946585" class="image-svg-svg primary" style="overflow: visible;"><svg xmlns="http://www.w3.org/2000/svg" xmlns:xlink="http://www.w3.org/1999/xlink" version="1.1" x="0px" y="0px" viewBox="0.000500023365020752 0.000500023365020752 63.999000549316406 63.9995002746582" enable-background="new 0 0 64 64" xml:space="preserve"><g><path d="M0.294,32.708l0.998,0.998c0.195,0.195,0.451,0.293,0.707,0.293s0.512-0.098,0.707-0.293S2.999,33.256,2.999,33H7v22.821   c-0.059,0.313,0.016,0.646,0.258,0.888c0.195,0.195,0.451,0.293,0.707,0.293c0.006,0,0.012-0.003,0.018-0.004   C7.989,56.999,7.994,57.002,8,57.002h23v3.999c-0.256,0-0.511,0.098-0.706,0.293c-0.391,0.391-0.391,1.023,0,1.414l0.998,0.998   c0.092,0.093,0.203,0.166,0.326,0.217C31.74,63.974,31.87,64,32,64s0.26-0.026,0.382-0.077c0.123-0.051,0.234-0.124,0.326-0.217   l0.998-0.998c0.391-0.391,0.391-1.023,0-1.414c-0.195-0.195-0.45-0.293-0.706-0.293v-3.999h11c0.13,0,0.26-0.026,0.382-0.077   c0.123-0.051,0.234-0.124,0.326-0.217L56.707,44.71c0.093-0.092,0.166-0.203,0.217-0.326c0.051-0.122,0.077-0.252,0.077-0.382V33h4   c0,0.256,0.098,0.511,0.293,0.706s0.451,0.293,0.707,0.293s0.512-0.098,0.707-0.293l0.998-0.998   c0.093-0.092,0.166-0.203,0.217-0.326c0.102-0.244,0.102-0.52,0-0.764c-0.051-0.123-0.124-0.234-0.217-0.326l-0.998-0.998   c-0.391-0.391-1.023-0.391-1.414,0c-0.195,0.195-0.293,0.45-0.293,0.706h-4V7.998c0-0.13-0.026-0.26-0.077-0.382   c-0.102-0.245-0.296-0.439-0.541-0.541c-0.122-0.051-0.252-0.077-0.382-0.077H33V2.999c0.256,0,0.511-0.098,0.706-0.293   c0.391-0.391,0.391-1.023,0-1.414l-0.998-0.998c-0.092-0.093-0.203-0.166-0.326-0.217c-0.244-0.102-0.52-0.102-0.764,0   c-0.123,0.051-0.234,0.124-0.326,0.217l-0.998,0.998c-0.391,0.391-0.391,1.023,0,1.414c0.195,0.195,0.45,0.293,0.706,0.293v3.999   H19.999c-0.13,0-0.26,0.026-0.382,0.077c-0.123,0.051-0.234,0.124-0.326,0.217l-12,11.999C7.093,19.489,6.997,19.749,7,20.008V31   H2.999c0-0.256-0.098-0.511-0.293-0.706c-0.391-0.391-1.023-0.391-1.414,0l-0.998,0.998c-0.093,0.092-0.166,0.203-0.217,0.326   c-0.102,0.244-0.102,0.52,0,0.764C0.128,32.505,0.201,32.616,0.294,32.708z M31.976,8.998c0.009,0,0.016,0.005,0.024,0.005   s0.016-0.005,0.024-0.005h21.563l-9.896,9.896c-3.367-3.033-7.808-4.896-12.686-4.896c-3.674,0-7.096,1.065-10.006,2.879V8.998   H31.976z M32.024,55.002c-0.009,0-0.016-0.005-0.024-0.005s-0.016,0.005-0.024,0.005H10.379l7.92-7.92   c3.37,3.044,7.818,4.915,12.706,4.915c4.546,0,8.722-1.608,11.995-4.281v7.286H32.024z M9,31.985V21.002h7.286   c-2.673,3.273-4.281,7.449-4.281,11.995c0,4.87,1.857,9.304,4.881,12.67L9,53.553V32.015C9,32.01,9.003,32.005,9.003,32   S9,31.99,9,31.985z M45,42.626V23.368c1.891,2.74,3.005,6.056,3.005,9.629S46.891,39.886,45,42.626z M43,21.002V45.03   c-3.077,3.067-7.318,4.967-11.995,4.967c-9.374,0-17-7.626-17-17c0-4.677,1.899-8.918,4.967-11.995H43z M21.376,19.002   c2.74-1.891,6.056-3.005,9.629-3.005s6.889,1.114,9.629,3.005H21.376z M45,45.803c0.242-0.265,0.489-0.523,0.716-0.801h7.871   L45,53.588V45.803z M55.001,31.98c0,0.007-0.004,0.013-0.004,0.02s0.004,0.013,0.004,0.02v10.982h-7.874   c1.813-2.91,2.878-6.331,2.878-10.005c0-4.88-1.865-9.321-4.899-12.69l9.896-9.895V31.98z M18.999,18.287   c-0.277,0.227-0.536,0.473-0.8,0.715h-7.791l8.591-8.59V18.287z"></path></g></svg></svg> <defs><filter id="colors9698682134"><feColorMatrix type="matrix" values="0 0 0 0 0.984375  0 0 0 0 0.31640625  0 0 0 0 0.9765625  0 0 0 1 0" class="icon-fecolormatrix"></feColorMatrix></filter> <filter id="colorsf5985946585"><feColorMatrix type="matrix" values="0 0 0 0 0.99609375  0 0 0 0 0.99609375  0 0 0 0 0.99609375  0 0 0 1 0" class="icon-fecolormatrix"></feColorMatrix></filter> <filter id="colorsb6320545378"><feColorMatrix type="matrix" values="0 0 0 0 0  0 0 0 0 0  0 0 0 0 0  0 0 0 1 0" class="icon-fecolormatrix"></feColorMatrix></filter></defs></g><rect v-gra="id" width="72" height="72.0005989074707" transform="translate(-6, -6)" style="pointer-events:none;" fill="url(#5QReOqyvW10OP0Ov2QxGV)"></rect></g> <g transform="translate(0,67.0005989074707)"><g data-gra="path-name" fill-rule="" class="tp-name iconsvg-namesvg" transform="translate(0,0)" fill="url(#8f2c8f6e-09bb-45f8-a65d-43a978a313ad)"><g transform="scale(1)"><g><path d="M-1.5 7.48Q-1.82 7.48-2.18 7.24-2.54 6.99-2.56 6.81L-2.56 6.81Q-1.39 3.39-0.84 1.46-0.29-0.48 0.07-2.66 0.43-4.83 1.01-9.34L1.01-9.34Q1.07-9.72 1.16-9.84 1.25-9.96 1.66-9.96L1.66-9.96Q2.43-9.96 2.83-9.54 3.23-9.13 3.23-8.54L3.23-8.54Q3.23-7.9 2.86-6.03L2.86-6.03Q3.71-7.34 4.82-8.21 5.93-9.08 7.21-9.08L7.21-9.08Q8.52-9.08 9.37-8.18 10.23-7.29 10.23-5.87L10.23-5.87Q10.23-4.46 9.38-2.87 8.54-1.28 7.05-0.21 5.55 0.85 3.74 0.85L3.74 0.85Q2.91 0.85 2.39 0.64 1.87 0.43 1.87 0.16L1.87 0.16Q1.87-0.11 2.51-0.11L2.51-0.11Q4.11-0.13 5.39-0.97 6.67-1.82 7.4-3.07 8.12-4.33 8.12-5.55L8.12-5.55Q8.12-6.41 7.74-6.97 7.37-7.53 6.62-7.53L6.62-7.53Q5.79-7.53 4.91-6.85 4.03-6.17 3.34-5.21 2.64-4.25 2.27-3.42L2.27-3.42Q1.82-1.84 1.09 1.12L1.09 1.12Q0.32 4.41-0.23 5.94-0.77 7.48-1.5 7.48L-1.5 7.48ZM12.31 7.48Q11.56 7.48 11.03 7.04 10.49 6.59 10.49 5.74L10.49 5.74Q10.49 4.7 11.28 3.84 12.07 2.99 13.11 2.4 14.15 1.82 15.81 1.04L15.81 1.04Q16.26-0.11 17.09-3.12L17.09-3.12Q16.13-1.76 15.2-0.99 14.28-0.21 13.24-0.21L13.24-0.21Q12.36-0.21 11.67-0.75 10.97-1.28 10.97-2.43L10.97-2.43Q10.97-3.34 11.4-4.74 11.83-6.14 12.41-7.2 13-8.25 13.43-8.25L13.43-8.25Q13.7-8.25 14.23-7.97 14.76-7.69 14.87-7.37L14.87-7.37Q14.36-6.67 13.76-5.05 13.16-3.42 13.16-2.48L13.16-2.48Q13.16-1.5 13.94-1.5L13.94-1.5Q14.74-1.5 15.67-2.43 16.61-3.36 17.46-4.73L17.46-4.73Q17.51-4.91 17.62-5.61 17.73-6.3 18.1-6.82 18.48-7.34 19.17-7.34L19.17-7.34Q19.28-7.34 20.02-7.24L20.02-7.24Q20-6.57 19.4-4.33 18.8-2.08 17.99 0.05L17.99 0.05Q19.3-0.48 20.46-1.58 21.63-2.67 22.29-4.46L22.29-4.46 22.75-4.08Q22.19-2.24 20.81-0.99 19.44 0.27 17.65 1.07L17.65 1.07Q16.39 4.03 15.1 5.75 13.8 7.48 12.31 7.48L12.31 7.48ZM12.04 6.49Q12.6 6.49 13.51 5.35 14.42 4.22 15.3 2.22L15.3 2.22Q13.75 2.99 12.64 3.92 11.53 4.86 11.53 5.74L11.53 5.74Q11.53 6.03 11.65 6.26 11.77 6.49 12.04 6.49L12.04 6.49ZM24.51 1.95Q23.01 1.95 22.21 1.01 21.41 0.08 21.41-1.6L21.41-1.6Q21.41-4.11 23.01-8.32 24.62-12.52 26.67-15.79 28.73-19.06 29.9-19.06L29.9-19.06Q30.41-19.06 30.69-18.5 30.97-17.94 31-17.22L31-17.22Q31-15.94 30.12-13.87 29.23-11.8 27.81-9.91 26.38-8.01 24.8-7.1L24.8-7.1Q24.43-6.41 24.02-4.82 23.6-3.23 23.6-1.76L23.6-1.76Q23.6-0.59 23.94 0.12 24.27 0.83 24.99 0.83L24.99 0.83Q25.68 0.83 26.48 0.2 27.29-0.43 27.79-1.36L27.79-1.36Q26.83-1.9 26.31-2.84 25.79-3.79 25.79-4.89L25.79-4.89Q25.79-6.17 26.48-6.98 27.18-7.8 28.22-7.8L28.22-7.8Q29.13-7.8 29.66-7.12 30.2-6.43 30.2-5.13L30.2-5.13Q30.2-3.5 29.39-1.76L29.39-1.76 29.88-1.74Q31.1-1.74 31.9-2.59 32.71-3.44 33.32-4.7L33.32-4.7 33.72-4.14Q33-2.48 32.02-1.7 31.05-0.91 29.53-0.91L29.53-0.91Q29.15-0.91 28.97-0.93L28.97-0.93Q28.14 0.37 27.02 1.16 25.9 1.95 24.51 1.95L24.51 1.95ZM25.31-8.78Q26.4-9.77 27.42-11.36 28.43-12.95 29.07-14.43 29.72-15.91 29.74-16.55L29.74-16.55Q29.39-16.42 28.54-15.22 27.69-14.02 26.78-12.27 25.87-10.52 25.31-8.78L25.31-8.78ZM28.25-2.24Q28.73-3.34 28.73-4.51L28.73-4.51Q28.73-5.42 28.51-5.9 28.3-6.38 27.95-6.38L27.95-6.38Q27.61-6.38 27.35-5.9 27.1-5.42 27.1-4.75L27.1-4.75Q27.1-4.08 27.38-3.38 27.66-2.67 28.25-2.24L28.25-2.24ZM37.91-11.24Q37.35-11.24 36.96-11.51 36.58-11.77 36.58-12.28L36.58-12.28Q36.58-12.9 37.26-13.36 37.94-13.83 38.71-13.83L38.71-13.83Q39.86-13.83 39.86-12.84L39.86-12.84Q39.86-12.28 39.25-11.76 38.63-11.24 37.91-11.24L37.91-11.24ZM34.76 0.8Q33.64 0.8 33.03 0.13 32.41-0.53 32.41-1.58L32.41-1.58Q32.41-2.64 33.01-4.47 33.61-6.3 34.53-7.69 35.46-9.08 36.39-9.08L36.39-9.08Q36.74-9.08 36.96-8.88 37.19-8.68 37.19-8.3L37.19-8.3Q37.19-8.06 36.98-7.65 36.76-7.24 36.28-6.46L36.28-6.46Q35.43-5.05 34.93-3.96 34.44-2.88 34.44-1.92L34.44-1.92Q34.44-1.09 34.73-0.8 35.03-0.51 35.64-0.51L35.64-0.51Q37.75-0.51 39.83-4.59L39.83-4.59 40.23-4.16Q39.3-1.82 37.86-0.51 36.42 0.8 34.76 0.8L34.76 0.8ZM48.14 0.53Q47.12 0.53 46.56 0.03 46-0.48 46-1.31L46-1.31Q46-1.66 46.12-2.11 46.24-2.56 46.37-3.02L46.37-3.02Q46.75-4.25 46.75-4.83L46.75-4.83Q46.75-5.37 46.48-5.62 46.21-5.87 45.81-5.87L45.81-5.87Q44.4-5.87 42.96-4.1 41.52-2.32 39.86 0.4L39.86 0.4Q38.71 0.4 38.13-0.37L38.13-0.37 38.37-1.04Q39.94-4.86 39.94-6.7L39.94-6.7Q40.15-6.94 40.55-7.14 40.96-7.34 41.33-7.34L41.33-7.34Q41.78-7.34 42.02-7.13 42.26-6.91 42.26-6.54L42.26-6.54Q42.26-5.82 41.81-4.16L41.81-4.16Q43.01-5.77 44.31-6.78 45.6-7.8 46.86-7.8L46.86-7.8Q47.92-7.8 48.51-7.06 49.1-6.33 49.1-5.31L49.1-5.31Q49.1-4.73 48.95-4.19 48.8-3.66 48.51-2.99L48.51-2.99Q48.06-1.87 48.06-1.31L48.06-1.31Q48.06-0.91 48.24-0.72 48.43-0.53 48.7-0.53L48.7-0.53Q49.58-0.53 50.61-1.75 51.63-2.96 52.46-4.62L52.46-4.62 52.92-4.25Q51.95-2.03 50.79-0.75 49.63 0.53 48.14 0.53L48.14 0.53ZM53.61 0.8Q52.73 0.8 52.04 0.19 51.34-0.43 51.34-1.6L51.34-1.6Q51.34-3.1 52.49-5.06 53.64-7.02 55.4-8.41 57.16-9.8 58.92-9.8L58.92-9.8Q60.23-9.8 60.23-8.94L60.23-8.94Q60.23-8.52 59.91-8.33L59.91-8.33Q59.7-8.62 58.98-8.62L58.98-8.62Q57.61-8.62 56.39-7.44 55.16-6.25 54.4-4.65 53.64-3.04 53.64-1.98L53.64-1.98Q53.64-1.44 53.85-1.15 54.06-0.85 54.49-0.85L54.49-0.85Q55.24-0.85 56.24-1.72 57.24-2.59 58.3-4.19 59.35-5.79 60.18-7.93L60.18-7.93Q62.26-13.27 63.7-16.25 65.14-19.22 66.21-19.22L66.21-19.22Q66.51-19.22 66.73-19 66.96-18.77 66.96-18.42L66.96-18.42Q66.96-17.97 66.55-17.03 66.13-16.1 65.14-14.1L65.14-14.1Q63.19-10.15 62.05-7.2 60.9-4.25 60.9-1.84L60.9-1.84Q60.9-1.2 61.02-0.97 61.14-0.75 61.43-0.75L61.43-0.75Q62.34-0.75 63.52-1.82 64.69-2.88 65.57-4.7L65.57-4.7 66.08-4.27Q65.2-2.08 63.65-0.69 62.1 0.69 60.58 0.69L60.58 0.69Q59.54 0.69 59.08 0.05 58.63-0.59 58.63-1.63L58.63-1.63Q58.63-2.24 58.84-3.36L58.84-3.36Q57.53-1.47 56.15-0.33 54.76 0.8 53.61 0.8L53.61 0.8ZM66.8 2.32Q65.89 2.32 65.22 1.95 64.56 1.58 63.97 0.83L63.97 0.83Q64.24 0.83 64.61 0.88L64.61 0.88 65.36 0.91Q66.27 0.91 68.13 0.64L68.13 0.64Q68.85-1.01 69.48-3.91 70.11-6.81 70.8-10.71L70.8-10.71Q71.39-13.86 71.66-15.06L71.66-15.06Q70.3-14.15 69.67-13.84 69.04-13.54 68.67-13.54L68.67-13.54Q67.89-13.54 67.89-14.63L67.89-14.63Q68.77-15.06 70.59-16.41 72.41-17.75 73.93-19.2L73.93-19.2Q74.27-18.88 74.27-18.15L74.27-18.15Q74.27-17.75 74.15-17.29 74.03-16.82 74.01-16.71L74.01-16.71Q73.74-15.67 73.69-15.27L73.69-15.27Q72.91-10.28 72.11-6.57 71.31-2.86 69.87 0.4L69.87 0.4Q70.51 0.35 70.8 0.35L70.8 0.35Q71.95 0.35 72.69 0.76 73.42 1.17 73.66 2.24L73.66 2.24Q72.35 2.08 71.2 2.08L71.2 2.08Q70.62 2.08 68.4 2.22L68.4 2.22Q67.07 2.32 66.8 2.32L66.8 2.32ZM77.26 2.32Q76.36 2.32 75.69 1.95 75.02 1.58 74.43 0.83L74.43 0.83Q74.7 0.83 75.08 0.88L75.08 0.88 75.82 0.91Q76.73 0.91 78.6 0.64L78.6 0.64Q79.32-1.01 79.95-3.91 80.58-6.81 81.27-10.71L81.27-10.71Q81.86-13.86 82.12-15.06L82.12-15.06Q80.76-14.15 80.13-13.84 79.51-13.54 79.13-13.54L79.13-13.54Q78.36-13.54 78.36-14.63L78.36-14.63Q79.24-15.06 81.06-16.41 82.87-17.75 84.39-19.2L84.39-19.2Q84.74-18.88 84.74-18.15L84.74-18.15Q84.74-17.75 84.62-17.29 84.5-16.82 84.47-16.71L84.47-16.71Q84.21-15.67 84.15-15.27L84.15-15.27Q83.38-10.28 82.58-6.57 81.78-2.86 80.34 0.4L80.34 0.4Q80.98 0.35 81.27 0.35L81.27 0.35Q82.42 0.35 83.15 0.76 83.89 1.17 84.13 2.24L84.13 2.24Q82.82 2.08 81.67 2.08L81.67 2.08Q81.08 2.08 78.87 2.22L78.87 2.22Q77.53 2.32 77.26 2.32L77.26 2.32ZM87.28-3.79Q87.6-4.81 88.93-5.14 90.27-5.47 91.52-5.47L91.52-5.47Q92.67-5.45 94.39-5.39 96.11-5.34 97.29-5.29L97.29-5.29Q97.02-4.67 96.07-4.26 95.13-3.84 94.03-3.84L94.03-3.84Q93.79-3.84 92.83-3.9L92.83-3.9Q91.6-4 90.69-4L90.69-4Q89.81-4 88.8-3.92 87.78-3.84 87.28-3.79L87.28-3.79ZM105.81 2.32Q104.23 2.32 102.95 1.51 101.67 0.69 100.93-0.83 100.2-2.35 100.2-4.38L100.2-4.38Q100.2-7.74 101.89-11.21 103.59-14.68 106.31-16.94 109.04-19.2 111.89-19.2L111.89-19.2Q112.99-19.2 113.71-18.45L113.71-18.45Q113.28-18.5 112.93-18.5L112.93-18.5Q110.69-18.5 108.36-16.26 106.02-14.02 104.5-10.65 102.98-7.29 102.98-4.22L102.98-4.22Q102.98-1.92 103.9-0.44 104.82 1.04 106.74 1.04L106.74 1.04Q109.06 1.04 111-1.17 112.93-3.39 114.04-6.69 115.15-9.99 115.15-12.98L115.15-12.98Q115.15-14.44 114.87-15.63 114.59-16.82 113.95-16.82L113.95-16.82Q113.39-16.82 112.65-15.87 111.92-14.92 111.31-13.59 110.69-12.25 110.48-11.19L110.48-11.19Q108.8-11.53 108.8-12.74L108.8-12.74Q108.8-13.67 109.68-14.9 110.56-16.13 111.79-17.02 113.01-17.91 114-17.91L114-17.91Q115.42-17.91 115.98-16.13 116.54-14.34 116.54-12.01L116.54-12.01Q116.54-7.74 114.86-4.47 113.17-1.2 110.68 0.56 108.18 2.32 105.81 2.32L105.81 2.32ZM115.34 7.48Q115.02 7.48 114.66 7.24 114.3 6.99 114.27 6.81L114.27 6.81Q115.44 3.39 115.99 1.46 116.54-0.48 116.9-2.66 117.26-4.83 117.85-9.34L117.85-9.34Q117.9-9.72 117.99-9.84 118.09-9.96 118.49-9.96L118.49-9.96Q119.26-9.96 119.66-9.54 120.06-9.13 120.06-8.54L120.06-8.54Q120.06-7.9 119.69-6.03L119.69-6.03Q120.54-7.34 121.65-8.21 122.76-9.08 124.04-9.08L124.04-9.08Q125.35-9.08 126.2-8.18 127.06-7.29 127.06-5.87L127.06-5.87Q127.06-4.46 126.22-2.87 125.38-1.28 123.88-0.21 122.39 0.85 120.57 0.85L120.57 0.85Q119.74 0.85 119.22 0.64 118.7 0.43 118.7 0.16L118.7 0.16Q118.7-0.11 119.34-0.11L119.34-0.11Q120.94-0.13 122.22-0.97 123.51-1.82 124.23-3.07 124.95-4.33 124.95-5.55L124.95-5.55Q124.95-6.41 124.57-6.97 124.2-7.53 123.45-7.53L123.45-7.53Q122.63-7.53 121.74-6.85 120.86-6.17 120.17-5.21 119.47-4.25 119.1-3.42L119.1-3.42Q118.65-1.84 117.93 1.12L117.93 1.12Q117.15 4.41 116.6 5.94 116.06 7.48 115.34 7.48L115.34 7.48ZM130.96 1.17Q129.27 1.17 128.34 0.27 127.4-0.64 127.4-2.06L127.4-2.06Q127.4-3.6 128.45-5.41 129.49-7.21 131.12-8.42 132.74-9.64 134.32-9.64L134.32-9.64Q135.15-9.64 135.71-9.22 136.27-8.81 136.27-7.85L136.27-7.85Q136.27-6.57 135.28-5.43 134.29-4.3 132.73-3.58 131.17-2.86 129.54-2.67L129.54-2.67Q129.49-2.4 129.49-2.06L129.49-2.06Q129.49-1.36 129.87-0.67 130.26 0.03 131.54 0.03L131.54 0.03Q133.17 0.03 134.87-1.29 136.56-2.62 137.6-4.59L137.6-4.59 138.14-4.16Q137.07-1.76 135.08-0.29 133.09 1.17 130.96 1.17L130.96 1.17ZM129.83-3.66Q130.8-3.76 131.98-4.43 133.17-5.1 134-6.07 134.83-7.05 134.83-7.98L134.83-7.98Q134.83-8.28 134.72-8.38 134.61-8.49 134.37-8.49L134.37-8.49Q133.6-8.49 132.68-7.76 131.76-7.02 130.98-5.9 130.21-4.78 129.83-3.66L129.83-3.66ZM145.96 0.53Q144.95 0.53 144.38 0.03 143.82-0.48 143.82-1.31L143.82-1.31Q143.82-1.66 143.94-2.11 144.06-2.56 144.2-3.02L144.2-3.02Q144.57-4.25 144.57-4.83L144.57-4.83Q144.57-5.37 144.3-5.62 144.04-5.87 143.64-5.87L143.64-5.87Q142.22-5.87 140.78-4.1 139.34-2.32 137.68 0.4L137.68 0.4Q136.54 0.4 135.95-0.37L135.95-0.37 136.19-1.04Q137.76-4.86 137.76-6.7L137.76-6.7Q137.98-6.94 138.38-7.14 138.78-7.34 139.15-7.34L139.15-7.34Q139.61-7.34 139.85-7.13 140.09-6.91 140.09-6.54L140.09-6.54Q140.09-5.82 139.63-4.16L139.63-4.16Q140.83-5.77 142.13-6.78 143.42-7.8 144.68-7.8L144.68-7.8Q145.75-7.8 146.33-7.06 146.92-6.33 146.92-5.31L146.92-5.31Q146.92-4.73 146.77-4.19 146.63-3.66 146.33-2.99L146.33-2.99Q145.88-1.87 145.88-1.31L145.88-1.31Q145.88-0.91 146.07-0.72 146.25-0.53 146.52-0.53L146.52-0.53Q147.4-0.53 148.43-1.75 149.46-2.96 150.28-4.62L150.28-4.62 150.74-4.25Q149.78-2.03 148.62-0.75 147.45 0.53 145.96 0.53L145.96 0.53ZM164.06 2.32Q163.07 2.32 161.59 0.75 160.11-0.83 158.6-3.08 157.09-5.34 156.05-7.34L156.05-7.34 153.62 0.51Q153.36 1.36 152.61 1.6 151.86 1.84 150.74 1.84L150.74 1.84Q151.22 0.8 151.69-0.45 152.15-1.71 153.09-4.49L153.09-4.49Q155.62-11.91 157.28-16.45L157.28-16.45Q157.31-16.53 157.45-16.9 157.6-17.27 157.6-17.59L157.6-17.59Q157.6-18.1 157.07-18.1L157.07-18.1Q156.29-18.1 155.54-17.31 154.8-16.53 154.34-15.42 153.89-14.31 153.89-13.51L153.89-13.51Q153.89-12.9 154.16-12.28L154.16-12.28Q153.06-12.28 152.54-12.75 152.02-13.22 152.02-14.02L152.02-14.02Q152.02-15.16 152.95-16.38 153.89-17.59 155.22-18.41 156.56-19.22 157.65-19.22L157.65-19.22Q159.12-19.22 159.12-17.67L159.12-17.67Q159.12-17.17 158.94-16.61L158.94-16.61 156.96-10.2Q157.28-10.39 158.8-11.56L158.8-11.56Q161.07-13.32 163.03-15.34 165-17.35 166.28-19.3L166.28-19.3Q166.57-19.04 166.69-18.62 166.81-18.21 166.81-17.86L166.81-17.86Q166.81-16.05 163.81-13.52 160.8-11 156.96-8.54L156.96-8.54Q158.37-6.35 159.38-4.99 160.38-3.63 161.9-2.1 163.42-0.56 165.72 1.2L165.72 1.2Q165.48 1.66 165 1.99 164.51 2.32 164.06 2.32L164.06 2.32ZM171.35 2.32Q169.69 2.32 168.39 1.66 167.08 0.99 166.37-0.16 165.66-1.31 165.66-2.7L165.66-2.7Q165.66-4.27 166.56-5.75 167.45-7.24 169-8.28 170.55-9.32 172.47-9.58L172.47-9.58Q171.54-10.41 171.04-11.45 170.55-12.49 170.55-13.62L170.55-13.62Q170.55-15.03 171.28-16.33 172.02-17.62 173.34-18.41 174.66-19.2 176.34-19.2L176.34-19.2Q177.97-19.2 178.85-18.41 179.73-17.62 179.73-16.13L179.73-16.13Q179.73-15.14 179.37-14.18 179.01-13.22 178.46-12.61 177.92-12.01 177.44-12.01L177.44-12.01Q176.77-12.01 176.16-13.11L176.16-13.11Q178.5-15.03 178.5-16.69L178.5-16.69Q178.5-17.46 177.98-17.89 177.46-18.32 176.58-18.32L176.58-18.32Q175.43-18.32 174.61-17.61 173.78-16.9 173.35-15.77 172.92-14.63 172.92-13.38L172.92-13.38Q172.92-12.12 173.39-10.99 173.86-9.85 174.9-9.05L174.9-9.05Q173.03-8.76 171.6-7.76 170.18-6.75 169.39-5.38 168.6-4 168.6-2.64L168.6-2.64Q168.6-1.74 168.96-0.88 169.32-0.03 170.09 0.55 170.87 1.12 172.07 1.12L172.07 1.12Q173.49 1.12 174.91 0.32 176.34-0.48 177.54-1.82 178.75-3.15 179.47-4.67L179.47-4.67 180.19-4.22Q178.61-1.25 176.34 0.53 174.07 2.32 171.35 2.32L171.35 2.32Z" transform="translate(2.559999942779541, 19.299999237060547)"></path></g> <!----> <!----> <!----> <!----> <!----> <!----> <!----></g></g> <g data-gra="path-slogan" fill-rule="" class="tp-slogan iconsvg-slogansvg" fill="url(#7ba2b9ec-8dcb-4a5d-899b-42999a851f52)" transform="translate(5,32.779998779296875)"><rect x="0" height="1" y="4.914999961853027" width="59.55999946594238"></rect> <rect height="1" y="4.914999961853027" width="59.55999946594238" x="113.19000053405762"></rect> <g transform="translate(62.55999946594238,0)"><g transform="scale(1)"><path d="M3.42-4.31L2.06-3.05L2.06 0L0.89 0L0.89-8.58L2.06-8.58L2.06-4.41L6.23-8.58L7.88-8.58L4.27-5.11L7.97 0L6.42 0L3.42-4.31ZM15.28-3.61L12.66-3.61L12.66-4.59L16.41-4.59L16.41 0L15.66 0L15.38-1.08Q14.39 0.09 12.56 0.14L12.56 0.14Q10.83 0.14 9.89-0.75L9.89-0.75Q8.48-2.06 8.53-4.36L8.53-4.36Q8.86-8.63 12.61-8.81L12.61-8.81Q15.80-8.63 16.27-6L16.27-6L15.14-6Q14.67-7.78 12.56-7.83L12.56-7.83Q9.89-7.64 9.75-4.31L9.75-4.31Q9.75-0.75 12.61-0.75L12.61-0.75Q13.64-0.75 14.39-1.31L14.39-1.31Q15.33-2.06 15.28-3.61L15.28-3.61ZM19.50-1.03L24.66-1.03L24.66 0L18.33 0L18.33-8.58L24.56-8.58L24.56-7.59L19.50-7.59L19.50-4.92L24.19-4.92L24.19-3.89L19.50-3.89L19.50-1.03ZM27.42-9.66L27.42-9.66Q28.59-9.66 28.55-9.52L28.55-9.52Q28.59-9.42 28.45-9.23L28.45-9.23Q28.36-9.05 28.36-8.95L28.36-8.95L28.36-6.98L28.59-6.98Q29.02-6.98 29.67-7.08L29.67-7.08L29.67-6.19Q29.39-6.23 28.59-6.23L28.59-6.23L28.36-6.23L28.36-4.88L29.02-5.16Q29.44-4.50 29.86-3.52L29.86-3.52L29.02-3.14Q28.73-4.08 28.36-4.64L28.36-4.64L28.36-0.70Q28.36-0.42 28.41 0.23L28.41 0.23Q28.41 0.84 28.41 1.08L28.41 1.08L27.42 1.08Q27.52 0.23 27.52-0.75L27.52-0.75L27.52-4.36Q27.47-4.22 27.33-3.98L27.33-3.98Q26.67-2.34 26.16-1.55L26.16-1.55Q25.97-2.02 25.55-2.44L25.55-2.44Q26.91-4.31 27.38-6.23L27.38-6.23L27.09-6.23Q26.20-6.23 25.88-6.19L25.88-6.19L25.88-7.08Q26.63-6.98 27.09-6.98L27.09-6.98L27.52-6.98L27.52-8.81Q27.52-9.33 27.42-9.66ZM33.56-9.70L33.56-9.70Q33.61-9.70 33.70-9.70L33.70-9.70Q34.64-9.61 34.64-9.52L34.64-9.52Q34.64-9.52 34.59-9.38L34.59-9.38Q34.50-9.14 34.50-9L34.50-9L34.50-8.34L34.83-8.34Q35.81-8.34 36.70-8.44L36.70-8.44L36.70-7.50Q35.81-7.59 34.92-7.59L34.92-7.59L34.50-7.59L34.50-6.47L34.73-6.47Q35.48-6.47 35.86-6.52L35.86-6.52Q35.72-5.53 35.72-5.11L35.72-5.11L35.72-4.50Q35.72-3.28 35.77-2.91L35.77-2.91Q35.20-2.95 33.89-3L33.89-3L33.28-3Q33.28-2.91 33.23-2.72L33.23-2.72Q33.19-2.39 33.14-2.11L33.14-2.11L35.06-2.11Q35.34-2.11 35.95-2.16L35.95-2.16Q36.42-2.16 36.56-2.16L36.56-2.16L36.56-1.41Q36.38-1.41 35.91-1.41L35.91-1.41Q35.34-1.45 35.11-1.45L35.11-1.45L33.66-1.45Q34.36-0.14 36.89 0.09L36.89 0.09Q36.42 0.47 36.05 1.13L36.05 1.13Q33.61 0.52 32.91-1.36L32.91-1.36Q32.39 0.19 29.48 1.08L29.48 1.08Q29.20 0.47 28.78 0.14L28.78 0.14Q31.17-0.09 32.06-1.45L32.06-1.45L30.52-1.45Q29.53-1.45 29.20-1.41L29.20-1.41L29.20-2.20Q29.91-2.11 30.47-2.11L30.47-2.11L32.25-2.11Q32.34-2.53 32.34-3L32.34-3L31.97-3Q31.22-3 30.14-2.91L30.14-2.91Q30.19-3.23 30.19-4.36L30.19-4.36L30.19-5.11Q30.19-6.14 30.09-6.47L30.09-6.47Q30.42-6.47 31.17-6.47L31.17-6.47L31.41-6.47L31.41-7.59L31.08-7.59Q30.09-7.59 29.58-7.55L29.58-7.55L29.58-8.44Q30.66-8.34 31.08-8.34L31.08-8.34L31.41-8.34L31.41-9.09Q31.41-9.38 31.36-9.66L31.36-9.66Q32.39-9.56 32.39-9.52L32.39-9.52Q32.44-9.42 32.34-9.28L32.34-9.28Q32.25-9.14 32.25-9.09L32.25-9.09L32.25-8.34L33.61-8.34L33.61-9.14Q33.66-9.42 33.56-9.70ZM33.66-6.47L33.66-7.59L32.25-7.59L32.25-6.47L33.66-6.47ZM34.88-5.86L31.03-5.86L31.03-5.06L34.88-5.06L34.88-5.86ZM34.88-4.45L31.03-4.45L31.03-3.61L34.88-3.61L34.88-4.45ZM46.88-9.52L46.88-9.52Q48.14-9.52 48.14-9.42L48.14-9.42Q48.14-9.38 48.09-9.28L48.09-9.28Q47.95-8.95 47.95-8.39L47.95-8.39L47.95-4.03Q48.14-2.86 45.89-2.77L45.89-2.77Q45.94-3.38 45.52-3.94L45.52-3.94Q47.02-3.80 46.97-4.27L46.97-4.27L46.97-7.97Q46.97-8.95 46.88-9.52ZM38.44-8.06L38.44-9.09Q38.44-9.09 38.53-9.09L38.53-9.09Q39.14-9 39.98-9L39.98-9L42.70-9Q43.36-9 43.88-9.09L43.88-9.09Q43.97-9.14 44.02-9.14L44.02-9.14L44.02-8.11Q43.97-8.11 43.83-8.11L43.83-8.11Q43.22-8.16 42.89-8.16L42.89-8.16L42.89-6.42L43.08-6.42Q43.50-6.42 44.11-6.47L44.11-6.47Q44.20-6.47 44.25-6.47L44.25-6.47L44.25-5.48Q44.25-5.48 44.16-5.48L44.16-5.48Q43.78-5.58 43.08-5.58L43.08-5.58L42.89-5.58L42.89-4.83Q42.89-4.17 42.98-3.70L42.98-3.70Q42.98-3.61 42.98-3.56L42.98-3.56L41.95-3.56Q41.95-3.61 41.95-3.75L41.95-3.75Q42-4.17 42-4.83L42-4.83L42-5.58L40.64-5.58Q40.50-3.94 38.63-2.72L38.63-2.72Q38.30-3.28 37.73-3.56L37.73-3.56Q39.42-4.08 39.70-5.58L39.70-5.58L39.28-5.58Q38.58-5.58 38.02-5.48L38.02-5.48Q37.92-5.48 37.92-5.48L37.92-5.48L37.92-6.52Q37.97-6.52 38.11-6.52L38.11-6.52Q38.63-6.42 39.28-6.42L39.28-6.42L39.80-6.42L39.80-8.16Q39.19-8.16 38.63-8.06L38.63-8.06Q38.48-8.06 38.44-8.06L38.44-8.06ZM44.72-8.63L44.72-8.63Q45.70-8.63 45.89-8.53L45.89-8.53Q45.89-8.53 45.89-8.48L45.89-8.48Q45.70-8.20 45.70-7.55L45.70-7.55L45.70-5.72Q45.70-5.06 45.75-4.55L45.75-4.55Q45.75-4.45 45.75-4.41L45.75-4.41L44.72-4.41Q44.72-4.45 44.72-4.55L44.72-4.55Q44.77-4.97 44.77-5.72L44.77-5.72L44.77-7.55Q44.77-8.02 44.72-8.44L44.72-8.44Q44.72-8.58 44.72-8.63ZM42-6.42L42-8.16L40.69-8.16L40.69-6.42L42-6.42ZM42.70-3.38L42.70-3.38Q43.59-3.42 43.88-3.33L43.88-3.33Q43.88-3.28 43.83-3.14L43.83-3.14Q43.73-2.81 43.73-2.34L43.73-2.34L45.42-2.34Q46.55-2.34 47.16-2.44L47.16-2.44Q47.20-2.44 47.20-2.44L47.20-2.44L47.20-1.41Q47.20-1.41 47.11-1.41L47.11-1.41Q46.50-1.55 45.47-1.55L45.47-1.55L43.73-1.55L43.73-0.23L46.03-0.23Q47.48-0.23 48.33-0.33L48.33-0.33Q48.47-0.33 48.52-0.33L48.52-0.33L48.52 0.70Q48.47 0.70 48.38 0.70L48.38 0.70Q47.53 0.56 46.17 0.56L46.17 0.56L40.31 0.56Q38.77 0.56 38.11 0.66L38.11 0.66Q38.02 0.66 38.02 0.66L38.02 0.66L38.02-0.33Q38.02-0.33 38.11-0.33L38.11-0.33Q38.67-0.23 40.22-0.23L40.22-0.23L42.75-0.23L42.75-1.55L40.73-1.55Q39.98-1.55 39.42-1.45L39.42-1.45Q39.28-1.45 39.23-1.45L39.23-1.45L39.23-2.44Q39.23-2.44 39.38-2.44L39.38-2.44Q39.98-2.34 40.73-2.34L40.73-2.34L42.75-2.34Q42.75-3.05 42.70-3.38Z" transform="translate(-0.890625, 9.703125)"></path></g></g></g></g></g><defs v-gra="od"><linearGradient x1="0" y1="1" x2="0" y2="0" id="7ba2b9ec-8dcb-4a5d-899b-42999a851f52"><stop offset="0%" stop-color="#fc51fa"></stop><stop offset="50%" stop-color="#fdaf42"></stop><stop offset="100%" stop-color="#2cd4ff"></stop></linearGradient><filter id="42443b3f1de60f6b6fd3b6a9844b4764" filterUnits="objectBoundingBox"><feColorMatrix type="matrix" values="0 0 0 0 0.99609375  0 0 0 0 0.99609375  0 0 0 0 0.99609375  0 0 0 1 0"></feColorMatrix></filter><linearGradient x1="0" y1="1" x2="0" y2="0" id="8f2c8f6e-09bb-45f8-a65d-43a978a313ad"><stop offset="0%" stop-color="#fc51fa"></stop><stop offset="50%" stop-color="#fdaf42"></stop><stop offset="100%" stop-color="#2cd4ff"></stop></linearGradient><filter id="42443b3f1de60f6b6fd3b6a9844b4764" filterUnits="objectBoundingBox"><feColorMatrix type="matrix" values="0 0 0 0 0.99609375  0 0 0 0 0.99609375  0 0 0 0 0.99609375  0 0 0 1 0"></feColorMatrix></filter></defs><defs v-gra="id"><filter id="8deaf3e0-86f6-4c60-b05a-494307f00ba0" filterUnits="userSpaceOnUse"><feColorMatrix type="matrix" values="0 0 0 0 0.99609375  0 0 0 0 0.99609375  0 0 0 0 0.99609375  0 0 0 1 0"></feColorMatrix></filter><linearGradient x1="0" y1="1" x2="0" y2="0" id="5QReOqyvW10OP0Ov2QxGV"><stop offset="0%" stop-color="#fc51fa"></stop><stop offset="50%" stop-color="#fdaf42"></stop><stop offset="100%" stop-color="#2cd4ff"></stop></linearGradient><filter id="42443b3f1de60f6b6fd3b6a9844b4764" filterUnits="objectBoundingBox"><feColorMatrix type="matrix" values="0 0 0 0 0.99609375  0 0 0 0 0.99609375  0 0 0 0 0.99609375  0 0 0 1 0"></feColorMatrix></filter></defs><mask v-gra="im" id="9a8db7a0-3013-48c8-9cec-0f82218a2692"><g class="iconsvg-imagesvg" filter="url(#8deaf3e0-86f6-4c60-b05a-494307f00ba0)"><g><rect fill="#fc51fa" fill-opacity="0" stroke-width="2" x="0" y="0" width="60" height="60.000600006000056" class="image-rect"></rect> <svg x="0" y="0" width="60" height="60.000600006000056" filtersec="colorsf5985946585" class="image-svg-svg primary" style="overflow: visible;"><svg xmlns="http://www.w3.org/2000/svg" xmlns:xlink="http://www.w3.org/1999/xlink" version="1.1" x="0px" y="0px" viewBox="0.000500023365020752 0.000500023365020752 63.999000549316406 63.9995002746582" enable-background="new 0 0 64 64" xml:space="preserve"><g><path d="M0.294,32.708l0.998,0.998c0.195,0.195,0.451,0.293,0.707,0.293s0.512-0.098,0.707-0.293S2.999,33.256,2.999,33H7v22.821   c-0.059,0.313,0.016,0.646,0.258,0.888c0.195,0.195,0.451,0.293,0.707,0.293c0.006,0,0.012-0.003,0.018-0.004   C7.989,56.999,7.994,57.002,8,57.002h23v3.999c-0.256,0-0.511,0.098-0.706,0.293c-0.391,0.391-0.391,1.023,0,1.414l0.998,0.998   c0.092,0.093,0.203,0.166,0.326,0.217C31.74,63.974,31.87,64,32,64s0.26-0.026,0.382-0.077c0.123-0.051,0.234-0.124,0.326-0.217   l0.998-0.998c0.391-0.391,0.391-1.023,0-1.414c-0.195-0.195-0.45-0.293-0.706-0.293v-3.999h11c0.13,0,0.26-0.026,0.382-0.077   c0.123-0.051,0.234-0.124,0.326-0.217L56.707,44.71c0.093-0.092,0.166-0.203,0.217-0.326c0.051-0.122,0.077-0.252,0.077-0.382V33h4   c0,0.256,0.098,0.511,0.293,0.706s0.451,0.293,0.707,0.293s0.512-0.098,0.707-0.293l0.998-0.998   c0.093-0.092,0.166-0.203,0.217-0.326c0.102-0.244,0.102-0.52,0-0.764c-0.051-0.123-0.124-0.234-0.217-0.326l-0.998-0.998   c-0.391-0.391-1.023-0.391-1.414,0c-0.195,0.195-0.293,0.45-0.293,0.706h-4V7.998c0-0.13-0.026-0.26-0.077-0.382   c-0.102-0.245-0.296-0.439-0.541-0.541c-0.122-0.051-0.252-0.077-0.382-0.077H33V2.999c0.256,0,0.511-0.098,0.706-0.293   c0.391-0.391,0.391-1.023,0-1.414l-0.998-0.998c-0.092-0.093-0.203-0.166-0.326-0.217c-0.244-0.102-0.52-0.102-0.764,0   c-0.123,0.051-0.234,0.124-0.326,0.217l-0.998,0.998c-0.391,0.391-0.391,1.023,0,1.414c0.195,0.195,0.45,0.293,0.706,0.293v3.999   H19.999c-0.13,0-0.26,0.026-0.382,0.077c-0.123,0.051-0.234,0.124-0.326,0.217l-12,11.999C7.093,19.489,6.997,19.749,7,20.008V31   H2.999c0-0.256-0.098-0.511-0.293-0.706c-0.391-0.391-1.023-0.391-1.414,0l-0.998,0.998c-0.093,0.092-0.166,0.203-0.217,0.326   c-0.102,0.244-0.102,0.52,0,0.764C0.128,32.505,0.201,32.616,0.294,32.708z M31.976,8.998c0.009,0,0.016,0.005,0.024,0.005   s0.016-0.005,0.024-0.005h21.563l-9.896,9.896c-3.367-3.033-7.808-4.896-12.686-4.896c-3.674,0-7.096,1.065-10.006,2.879V8.998   H31.976z M32.024,55.002c-0.009,0-0.016-0.005-0.024-0.005s-0.016,0.005-0.024,0.005H10.379l7.92-7.92   c3.37,3.044,7.818,4.915,12.706,4.915c4.546,0,8.722-1.608,11.995-4.281v7.286H32.024z M9,31.985V21.002h7.286   c-2.673,3.273-4.281,7.449-4.281,11.995c0,4.87,1.857,9.304,4.881,12.67L9,53.553V32.015C9,32.01,9.003,32.005,9.003,32   S9,31.99,9,31.985z M45,42.626V23.368c1.891,2.74,3.005,6.056,3.005,9.629S46.891,39.886,45,42.626z M43,21.002V45.03   c-3.077,3.067-7.318,4.967-11.995,4.967c-9.374,0-17-7.626-17-17c0-4.677,1.899-8.918,4.967-11.995H43z M21.376,19.002   c2.74-1.891,6.056-3.005,9.629-3.005s6.889,1.114,9.629,3.005H21.376z M45,45.803c0.242-0.265,0.489-0.523,0.716-0.801h7.871   L45,53.588V45.803z M55.001,31.98c0,0.007-0.004,0.013-0.004,0.02s0.004,0.013,0.004,0.02v10.982h-7.874   c1.813-2.91,2.878-6.331,2.878-10.005c0-4.88-1.865-9.321-4.899-12.69l9.896-9.895V31.98z M18.999,18.287   c-0.277,0.227-0.536,0.473-0.8,0.715h-7.791l8.591-8.59V18.287z"></path></g></svg></svg> <defs><filter id="colors9698682134"><feColorMatrix type="matrix" values="0 0 0 0 0.984375  0 0 0 0 0.31640625  0 0 0 0 0.9765625  0 0 0 1 0" class="icon-fecolormatrix"></feColorMatrix></filter> <filter id="colorsf5985946585"><feColorMatrix type="matrix" values="0 0 0 0 0.99609375  0 0 0 0 0.99609375  0 0 0 0 0.99609375  0 0 0 1 0" class="icon-fecolormatrix"></feColorMatrix></filter> <filter id="colorsb6320545378"><feColorMatrix type="matrix" values="0 0 0 0 0  0 0 0 0 0  0 0 0 0 0  0 0 0 1 0" class="icon-fecolormatrix"></feColorMatrix></filter></defs></g></g></mask></svg>