<svg data-v-decfdd8a="" version="1.0" xmlns="http://www.w3.org/2000/svg" xmlns:xlink="http://www.w3.org/1999/xlink" width="100%" height="100%" viewBox="0 0 340.000000 250.000000" preserveAspectRatio="xMidYMid meet" color-interpolation-filters="sRGB" style="margin: auto;">   <g data-v-decfdd8a="" fill="#ff5857" class="basesvg" transform="translate(53.2449951171875,107.89500045776367)"><g data-gra="path-name" fill-rule="" class="tp-name"><g transform="scale(1)"><g><path d="M-1.91 9.55Q-2.32 9.55-2.78 9.25-3.24 8.94-3.27 8.7L-3.27 8.7Q-1.77 4.33-1.07 1.86-0.38-0.61 0.09-3.39 0.55-6.17 1.3-11.94L1.3-11.94Q1.36-12.42 1.48-12.57 1.6-12.72 2.12-12.72L2.12-12.72Q3.1-12.72 3.62-12.2 4.13-11.67 4.13-10.92L4.13-10.92Q4.13-10.1 3.65-7.71L3.65-7.71Q4.74-9.38 6.16-10.49 7.57-11.6 9.21-11.6L9.21-11.6Q10.88-11.6 11.97-10.46 13.07-9.31 13.07-7.51L13.07-7.51Q13.07-5.7 11.99-3.67 10.92-1.64 9.01-0.27 7.1 1.09 4.78 1.09L4.78 1.09Q3.72 1.09 3.05 0.82 2.39 0.55 2.39 0.2L2.39 0.2Q2.39-0.14 3.21-0.14L3.21-0.14Q5.25-0.17 6.89-1.25 8.53-2.32 9.45-3.92 10.37-5.53 10.37-7.1L10.37-7.1Q10.37-8.19 9.89-8.9 9.42-9.62 8.46-9.62L8.46-9.62Q7.4-9.62 6.28-8.75 5.15-7.88 4.26-6.65 3.38-5.42 2.9-4.37L2.9-4.37Q2.32-2.35 1.4 1.43L1.4 1.43Q0.41 5.63-0.29 7.59-0.99 9.55-1.91 9.55L-1.91 9.55ZM15.73 9.55Q14.77 9.55 14.09 8.99 13.41 8.43 13.41 7.33L13.41 7.33Q13.41 6 14.41 4.91 15.42 3.82 16.75 3.07 18.08 2.32 20.2 1.33L20.2 1.33Q20.78-0.14 21.83-3.99L21.83-3.99Q20.61-2.25 19.43-1.26 18.25-0.27 16.92-0.27L16.92-0.27Q15.8-0.27 14.91-0.96 14.02-1.64 14.02-3.1L14.02-3.1Q14.02-4.26 14.57-6.06 15.11-7.85 15.86-9.19 16.61-10.54 17.16-10.54L17.16-10.54Q17.5-10.54 18.18-10.18 18.87-9.82 19-9.42L19-9.42Q18.35-8.53 17.59-6.45 16.82-4.37 16.82-3.17L16.82-3.17Q16.82-1.91 17.81-1.91L17.81-1.91Q18.83-1.91 20.03-3.1 21.22-4.3 22.31-6.04L22.31-6.04Q22.38-6.28 22.52-7.16 22.65-8.05 23.13-8.72 23.61-9.38 24.49-9.38L24.49-9.38Q24.63-9.38 25.59-9.25L25.59-9.25Q25.55-8.39 24.78-5.53 24.02-2.66 22.99 0.07L22.99 0.07Q24.66-0.61 26.15-2.01 27.63-3.41 28.49-5.7L28.49-5.7 29.07-5.22Q28.35-2.87 26.59-1.26 24.84 0.34 22.55 1.36L22.55 1.36Q20.95 5.15 19.29 7.35 17.64 9.55 15.73 9.55L15.73 9.55ZM15.39 8.29Q16.1 8.29 17.26 6.84 18.42 5.39 19.55 2.83L19.55 2.83Q17.57 3.82 16.15 5.01 14.74 6.21 14.74 7.33L14.74 7.33Q14.74 7.71 14.89 8 15.04 8.29 15.39 8.29L15.39 8.29ZM31.32 2.49Q29.41 2.49 28.38 1.3 27.36 0.1 27.36-2.05L27.36-2.05Q27.36-5.25 29.41-10.63 31.45-16 34.08-20.18 36.71-24.36 38.21-24.36L38.21-24.36Q38.86-24.36 39.21-23.64 39.57-22.92 39.61-22L39.61-22Q39.61-20.37 38.48-17.72 37.36-15.08 35.53-12.66 33.71-10.23 31.69-9.07L31.69-9.07Q31.21-8.19 30.69-6.16 30.16-4.13 30.16-2.25L30.16-2.25Q30.16-0.75 30.58 0.15 31.01 1.06 31.93 1.06L31.93 1.06Q32.82 1.06 33.84 0.26 34.87-0.55 35.51-1.74L35.51-1.74Q34.29-2.42 33.62-3.63 32.95-4.84 32.95-6.24L32.95-6.24Q32.95-7.88 33.84-8.92 34.73-9.96 36.06-9.96L36.06-9.96Q37.22-9.96 37.9-9.09 38.58-8.22 38.58-6.55L38.58-6.55Q38.58-4.47 37.56-2.25L37.56-2.25 38.17-2.22Q39.74-2.22 40.77-3.31 41.79-4.4 42.57-6L42.57-6 43.09-5.29Q42.17-3.17 40.92-2.17 39.68-1.16 37.73-1.16L37.73-1.16Q37.25-1.16 37.01-1.19L37.01-1.19Q35.96 0.48 34.52 1.48 33.09 2.49 31.32 2.49L31.32 2.49ZM32.34-11.22Q33.74-12.49 35.04-14.52 36.33-16.55 37.15-18.44 37.97-20.33 38-21.15L38-21.15Q37.56-20.98 36.47-19.45 35.38-17.91 34.22-15.68 33.06-13.44 32.34-11.22L32.34-11.22ZM36.09-2.87Q36.71-4.26 36.71-5.77L36.71-5.77Q36.71-6.93 36.43-7.54 36.16-8.15 35.72-8.15L35.72-8.15Q35.27-8.15 34.95-7.54 34.63-6.93 34.63-6.07L34.63-6.07Q34.63-5.22 34.98-4.32 35.34-3.41 36.09-2.87L36.09-2.87ZM48.44-14.36Q47.73-14.36 47.23-14.7 46.74-15.04 46.74-15.69L46.74-15.69Q46.74-16.48 47.61-17.07 48.48-17.67 49.47-17.67L49.47-17.67Q50.93-17.67 50.93-16.41L50.93-16.41Q50.93-15.69 50.15-15.03 49.36-14.36 48.44-14.36L48.44-14.36ZM44.42 1.02Q42.98 1.02 42.2 0.17 41.42-0.68 41.42-2.01L41.42-2.01Q41.42-3.38 42.18-5.71 42.95-8.05 44.13-9.82 45.3-11.6 46.5-11.6L46.5-11.6Q46.94-11.6 47.23-11.34 47.52-11.09 47.52-10.61L47.52-10.61Q47.52-10.3 47.25-9.77 46.98-9.25 46.36-8.26L46.36-8.26Q45.27-6.45 44.64-5.07 44.01-3.68 44.01-2.46L44.01-2.46Q44.01-1.4 44.38-1.02 44.76-0.65 45.54-0.65L45.54-0.65Q48.24-0.65 50.9-5.87L50.9-5.87 51.41-5.32Q50.22-2.32 48.37-0.65 46.53 1.02 44.42 1.02L44.42 1.02ZM61.51 0.68Q60.21 0.68 59.5 0.03 58.78-0.61 58.78-1.67L58.78-1.67Q58.78-2.12 58.93-2.7 59.09-3.27 59.26-3.85L59.26-3.85Q59.73-5.42 59.73-6.17L59.73-6.17Q59.73-6.86 59.39-7.18 59.05-7.51 58.54-7.51L58.54-7.51Q56.73-7.51 54.89-5.24 53.05-2.97 50.93 0.51L50.93 0.51Q49.47 0.51 48.72-0.48L48.72-0.48 49.02-1.33Q51.04-6.21 51.04-8.56L51.04-8.56Q51.31-8.87 51.82-9.13 52.33-9.38 52.81-9.38L52.81-9.38Q53.39-9.38 53.7-9.11 54-8.84 54-8.36L54-8.36Q54-7.44 53.42-5.32L53.42-5.32Q54.96-7.37 56.61-8.67 58.27-9.96 59.87-9.96L59.87-9.96Q61.24-9.96 61.99-9.02 62.74-8.09 62.74-6.79L62.74-6.79Q62.74-6.04 62.55-5.36 62.36-4.67 61.99-3.82L61.99-3.82Q61.41-2.39 61.41-1.67L61.41-1.67Q61.41-1.16 61.64-0.92 61.88-0.68 62.22-0.68L62.22-0.68Q63.35-0.68 64.66-2.23 65.98-3.79 67.04-5.9L67.04-5.9 67.61-5.42Q66.39-2.59 64.9-0.96 63.42 0.68 61.51 0.68L61.51 0.68ZM68.5 1.02Q67.38 1.02 66.49 0.24 65.6-0.55 65.6-2.05L65.6-2.05Q65.6-3.96 67.07-6.46 68.54-8.97 70.79-10.75 73.04-12.52 75.29-12.52L75.29-12.52Q76.96-12.52 76.96-11.43L76.96-11.43Q76.96-10.88 76.55-10.64L76.55-10.64Q76.28-11.02 75.36-11.02L75.36-11.02Q73.62-11.02 72.05-9.5 70.48-7.98 69.51-5.94 68.54-3.89 68.54-2.52L68.54-2.52Q68.54-1.84 68.81-1.47 69.08-1.09 69.63-1.09L69.63-1.09Q70.58-1.09 71.86-2.2 73.14-3.31 74.49-5.36 75.84-7.4 76.89-10.13L76.89-10.13Q79.56-16.95 81.4-20.76 83.24-24.56 84.6-24.56L84.6-24.56Q84.98-24.56 85.27-24.27 85.56-23.98 85.56-23.54L85.56-23.54Q85.56-22.96 85.03-21.77 84.5-20.57 83.24-18.01L83.24-18.01Q80.75-12.96 79.28-9.19 77.82-5.42 77.82-2.35L77.82-2.35Q77.82-1.54 77.97-1.25 78.12-0.96 78.5-0.96L78.5-0.96Q79.66-0.96 81.16-2.32 82.66-3.68 83.79-6L83.79-6 84.43-5.46Q83.31-2.66 81.33-0.89 79.35 0.89 77.41 0.89L77.41 0.89Q76.08 0.89 75.5 0.07 74.92-0.75 74.92-2.08L74.92-2.08Q74.92-2.87 75.19-4.3L75.19-4.3Q73.52-1.88 71.74-0.43 69.97 1.02 68.5 1.02L68.5 1.02ZM85.35 2.97Q84.19 2.97 83.34 2.49 82.49 2.01 81.74 1.06L81.74 1.06Q82.08 1.06 82.56 1.13L82.56 1.13 83.51 1.16Q84.67 1.16 87.06 0.82L87.06 0.82Q87.98-1.3 88.78-5 89.58-8.7 90.47-13.68L90.47-13.68Q91.22-17.71 91.56-19.24L91.56-19.24Q89.82-18.08 89.02-17.69 88.22-17.3 87.74-17.3L87.74-17.3Q86.75-17.3 86.75-18.69L86.75-18.69Q87.88-19.24 90.2-20.96 92.52-22.69 94.46-24.53L94.46-24.53Q94.91-24.12 94.91-23.2L94.91-23.2Q94.91-22.69 94.75-22.09 94.6-21.49 94.57-21.36L94.57-21.36Q94.22-20.03 94.16-19.51L94.16-19.51Q93.17-13.13 92.14-8.39 91.12-3.65 89.28 0.51L89.28 0.51Q90.1 0.44 90.47 0.44L90.47 0.44Q91.94 0.44 92.88 0.97 93.81 1.5 94.12 2.87L94.12 2.87Q92.45 2.66 90.98 2.66L90.98 2.66Q90.23 2.66 87.4 2.83L87.4 2.83Q85.7 2.97 85.35 2.97L85.35 2.97ZM98.73 2.97Q97.57 2.97 96.71 2.49 95.86 2.01 95.11 1.06L95.11 1.06Q95.45 1.06 95.93 1.13L95.93 1.13 96.89 1.16Q98.05 1.16 100.43 0.82L100.43 0.82Q101.35-1.3 102.16-5 102.96-8.7 103.84-13.68L103.84-13.68Q104.6-17.71 104.94-19.24L104.94-19.24Q103.2-18.08 102.39-17.69 101.59-17.3 101.12-17.3L101.12-17.3Q100.13-17.3 100.13-18.69L100.13-18.69Q101.25-19.24 103.57-20.96 105.89-22.69 107.84-24.53L107.84-24.53Q108.28-24.12 108.28-23.2L108.28-23.2Q108.28-22.69 108.13-22.09 107.97-21.49 107.94-21.36L107.94-21.36Q107.6-20.03 107.53-19.51L107.53-19.51Q106.54-13.13 105.52-8.39 104.49-3.65 102.65 0.51L102.65 0.51Q103.47 0.44 103.84 0.44L103.84 0.44Q105.31 0.44 106.25 0.97 107.19 1.5 107.49 2.87L107.49 2.87Q105.82 2.66 104.36 2.66L104.36 2.66Q103.61 2.66 100.77 2.83L100.77 2.83Q99.07 2.97 98.73 2.97L98.73 2.97ZM111.52-4.84Q111.93-6.14 113.64-6.57 115.34-6.99 116.94-6.99L116.94-6.99Q118.41-6.96 120.61-6.89 122.81-6.82 124.31-6.75L124.31-6.75Q123.97-5.97 122.76-5.44 121.55-4.91 120.15-4.91L120.15-4.91Q119.84-4.91 118.62-4.98L118.62-4.98Q117.05-5.12 115.89-5.12L115.89-5.12Q114.76-5.12 113.46-5.01 112.17-4.91 111.52-4.84L111.52-4.84ZM135.2 2.97Q133.18 2.97 131.55 1.93 129.91 0.89 128.97-1.06 128.03-3 128.03-5.59L128.03-5.59Q128.03-9.89 130.2-14.33 132.36-18.76 135.84-21.65 139.32-24.53 142.97-24.53L142.97-24.53Q144.37-24.53 145.29-23.57L145.29-23.57Q144.75-23.64 144.3-23.64L144.3-23.64Q141.44-23.64 138.45-20.78 135.47-17.91 133.52-13.61 131.58-9.31 131.58-5.39L131.58-5.39Q131.58-2.46 132.76-0.56 133.93 1.33 136.39 1.33L136.39 1.33Q139.36 1.33 141.83-1.5 144.3-4.33 145.72-8.55 147.14-12.76 147.14-16.58L147.14-16.58Q147.14-18.46 146.78-19.97 146.42-21.49 145.6-21.49L145.6-21.49Q144.88-21.49 143.95-20.28 143.01-19.07 142.22-17.36 141.44-15.66 141.17-14.29L141.17-14.29Q139.02-14.74 139.02-16.27L139.02-16.27Q139.02-17.47 140.14-19.04 141.27-20.61 142.84-21.75 144.41-22.89 145.67-22.89L145.67-22.89Q147.48-22.89 148.19-20.61 148.91-18.32 148.91-15.35L148.91-15.35Q148.91-9.89 146.76-5.71 144.61-1.54 141.42 0.72 138.23 2.97 135.2 2.97L135.2 2.97ZM147.37 9.55Q146.97 9.55 146.5 9.25 146.04 8.94 146.01 8.7L146.01 8.7Q147.51 4.33 148.21 1.86 148.91-0.61 149.37-3.39 149.83-6.17 150.58-11.94L150.58-11.94Q150.65-12.42 150.77-12.57 150.89-12.72 151.4-12.72L151.4-12.72Q152.39-12.72 152.9-12.2 153.41-11.67 153.41-10.92L153.41-10.92Q153.41-10.1 152.94-7.71L152.94-7.71Q154.03-9.38 155.44-10.49 156.86-11.6 158.5-11.6L158.5-11.6Q160.17-11.6 161.26-10.46 162.35-9.31 162.35-7.51L162.35-7.51Q162.35-5.7 161.28-3.67 160.2-1.64 158.29-0.27 156.38 1.09 154.06 1.09L154.06 1.09Q153 1.09 152.34 0.82 151.67 0.55 151.67 0.2L151.67 0.2Q151.67-0.14 152.49-0.14L152.49-0.14Q154.54-0.17 156.18-1.25 157.81-2.32 158.73-3.92 159.66-5.53 159.66-7.1L159.66-7.1Q159.66-8.19 159.18-8.9 158.7-9.62 157.75-9.62L157.75-9.62Q156.69-9.62 155.56-8.75 154.44-7.88 153.55-6.65 152.66-5.42 152.18-4.37L152.18-4.37Q151.6-2.35 150.68 1.43L150.68 1.43Q149.69 5.63 149 7.59 148.3 9.55 147.37 9.55L147.37 9.55ZM167.33 1.5Q165.18 1.5 163.99 0.34 162.79-0.82 162.79-2.63L162.79-2.63Q162.79-4.61 164.12-6.91 165.46-9.21 167.54-10.76 169.62-12.32 171.63-12.32L171.63-12.32Q172.69-12.32 173.4-11.79 174.12-11.26 174.12-10.03L174.12-10.03Q174.12-8.39 172.86-6.94 171.6-5.49 169.6-4.57 167.6-3.65 165.52-3.41L165.52-3.41Q165.46-3.07 165.46-2.63L165.46-2.63Q165.46-1.74 165.95-0.85 166.44 0.03 168.08 0.03L168.08 0.03Q170.16 0.03 172.33-1.65 174.5-3.34 175.83-5.87L175.83-5.87 176.51-5.32Q175.14-2.25 172.6-0.38 170.06 1.5 167.33 1.5L167.33 1.5ZM165.9-4.67Q167.13-4.81 168.65-5.66 170.16-6.52 171.22-7.76 172.28-9.01 172.28-10.2L172.28-10.2Q172.28-10.58 172.14-10.71 172.01-10.85 171.7-10.85L171.7-10.85Q170.71-10.85 169.53-9.91 168.36-8.97 167.37-7.54 166.38-6.11 165.9-4.67L165.9-4.67ZM186.5 0.68Q185.21 0.68 184.49 0.03 183.77-0.61 183.77-1.67L183.77-1.67Q183.77-2.12 183.93-2.7 184.08-3.27 184.25-3.85L184.25-3.85Q184.73-5.42 184.73-6.17L184.73-6.17Q184.73-6.86 184.39-7.18 184.05-7.51 183.54-7.51L183.54-7.51Q181.73-7.51 179.89-5.24 178.04-2.97 175.93 0.51L175.93 0.51Q174.46 0.51 173.71-0.48L173.71-0.48 174.02-1.33Q176.03-6.21 176.03-8.56L176.03-8.56Q176.3-8.87 176.82-9.13 177.33-9.38 177.8-9.38L177.8-9.38Q178.38-9.38 178.69-9.11 179-8.84 179-8.36L179-8.36Q179-7.44 178.42-5.32L178.42-5.32Q179.95-7.37 181.61-8.67 183.26-9.96 184.87-9.96L184.87-9.96Q186.23-9.96 186.98-9.02 187.73-8.09 187.73-6.79L187.73-6.79Q187.73-6.04 187.54-5.36 187.36-4.67 186.98-3.82L186.98-3.82Q186.4-2.39 186.4-1.67L186.4-1.67Q186.4-1.16 186.64-0.92 186.88-0.68 187.22-0.68L187.22-0.68Q188.35-0.68 189.66-2.23 190.97-3.79 192.03-5.9L192.03-5.9 192.61-5.42Q191.38-2.59 189.9-0.96 188.41 0.68 186.5 0.68L186.5 0.68ZM209.63 2.97Q208.37 2.97 206.48 0.96 204.58-1.06 202.66-3.94 200.73-6.82 199.4-9.38L199.4-9.38 196.29 0.65Q195.95 1.74 195 2.05 194.04 2.35 192.61 2.35L192.61 2.35Q193.22 1.02 193.82-0.58 194.42-2.18 195.61-5.73L195.61-5.73Q198.85-15.22 200.97-21.01L200.97-21.01Q201-21.12 201.19-21.59 201.38-22.07 201.38-22.48L201.38-22.48Q201.38-23.13 200.7-23.13L200.7-23.13Q199.71-23.13 198.75-22.12 197.8-21.12 197.22-19.7 196.64-18.29 196.64-17.26L196.64-17.26Q196.64-16.48 196.98-15.69L196.98-15.69Q195.58-15.69 194.91-16.29 194.25-16.89 194.25-17.91L194.25-17.91Q194.25-19.38 195.44-20.93 196.64-22.48 198.34-23.52 200.05-24.56 201.45-24.56L201.45-24.56Q203.32-24.56 203.32-22.58L203.32-22.58Q203.32-21.94 203.08-21.22L203.08-21.22 200.56-13.03Q200.97-13.27 202.91-14.77L202.91-14.77Q205.81-17.02 208.32-19.6 210.83-22.17 212.47-24.66L212.47-24.66Q212.84-24.32 212.99-23.79 213.15-23.27 213.15-22.82L213.15-22.82Q213.15-20.5 209.31-17.28 205.47-14.06 200.56-10.92L200.56-10.92Q202.37-8.12 203.65-6.38 204.93-4.64 206.87-2.68 208.81-0.72 211.75 1.54L211.75 1.54Q211.44 2.12 210.83 2.54 210.21 2.97 209.63 2.97L209.63 2.97ZM218.95 2.97Q216.83 2.97 215.16 2.12 213.49 1.26 212.58-0.2 211.68-1.67 211.68-3.45L211.68-3.45Q211.68-5.46 212.82-7.35 213.97-9.25 215.94-10.58 217.92-11.91 220.38-12.25L220.38-12.25Q219.19-13.3 218.55-14.64 217.92-15.97 217.92-17.4L217.92-17.4Q217.92-19.21 218.86-20.86 219.8-22.52 221.49-23.52 223.18-24.53 225.33-24.53L225.33-24.53Q227.41-24.53 228.53-23.52 229.66-22.52 229.66-20.61L229.66-20.61Q229.66-19.34 229.2-18.11 228.74-16.89 228.04-16.12 227.34-15.35 226.73-15.35L226.73-15.35Q225.87-15.35 225.09-16.75L225.09-16.75Q228.09-19.21 228.09-21.32L228.09-21.32Q228.09-22.31 227.42-22.86 226.76-23.4 225.63-23.4L225.63-23.4Q224.17-23.4 223.11-22.5 222.05-21.59 221.51-20.14 220.96-18.69 220.96-17.09L220.96-17.09Q220.96-15.49 221.56-14.04 222.15-12.59 223.48-11.56L223.48-11.56Q221.1-11.19 219.27-9.91 217.45-8.63 216.44-6.87 215.43-5.12 215.43-3.38L215.43-3.38Q215.43-2.22 215.89-1.13 216.35-0.03 217.34 0.7 218.33 1.43 219.87 1.43L219.87 1.43Q221.68 1.43 223.5 0.41 225.33-0.61 226.86-2.32 228.4-4.03 229.32-5.97L229.32-5.97 230.24-5.39Q228.23-1.6 225.33 0.68 222.43 2.97 218.95 2.97L218.95 2.97Z" transform="translate(3.2699999809265137, 24.65999984741211)"></path></g> <!----> <!----> <!----> <!----> <!----> <!----> <!----></g></g> <!----></g><defs v-gra="od"></defs></svg>