<svg data-v-decfdd8a="" version="1.0" xmlns="http://www.w3.org/2000/svg" xmlns:xlink="http://www.w3.org/1999/xlink" width="100%" height="100%" viewBox="0 0 340.000000 250.000000" preserveAspectRatio="xMidYMid meet" color-interpolation-filters="sRGB" style="margin: auto;">   <g data-v-decfdd8a="" class="iconmbgsvg" transform="translate(76.40632629394531,68.73537063598633)"><g fill="#000000" hollow-target="textNormalTran"><g opacity="0.55" transform="translate(37.34367370605469,0)"><g><rect fill="#000000" fill-opacity="0" stroke-width="2" x="0" y="0" width="112.5" height="112.52925760697781" class="image-rect"></rect> <svg x="0" y="0" width="112.5" height="112.52925760697781" filtersec="colorsb2400170078" class="image-svg-svg primary" style="overflow: visible;"><svg xmlns="http://www.w3.org/2000/svg" viewBox="0.028918743133544922 0.03153061866760254 181.50201416015625 181.5484619140625"><defs><linearGradient id="a6a821789-ac66-4533-8dbc-bc62eeeb8b13" x1="37.05" y1="144.72" x2="180.13" y2="1.64" gradientUnits="userSpaceOnUse"><stop offset="0" stop-color="#278cff"></stop><stop offset=".49" stop-color="#ef4bed"></stop><stop offset=".99" stop-color="#f98962"></stop></linearGradient></defs><path d="M142.44 35.36c-9.61-9.57-18.83-18.68-27.92-27.91-1.79-1.81-5.46-3.51-4.48-5.94s4.82-1.13 7.37-1.14c19.16-.1 38.33.07 57.49-.14 5-.05 6.63 1.48 6.56 6.58-.26 20.33-.09 40.66-.15 61 0 1.51.95 3.74-1.09 4.39-1.5.47-2.44-1.45-3.47-2.47-9-8.93-17.91-17.9-26.89-26.83-1.15-1.15-2.06-2.63-3.86-3.18-1.22 1.65-.61 3.53-.61 5.26q-.06 64.74 0 129.48c0 7.11 0 7.12-7.21 7.12h-59c-7 0-7.07 0-7.07-7.36v-58c0-6.61 0-6.63-6.7-6.64-19.67 0-39.33-.13-59 .09-4.77.06-6.43-1.41-6.38-6.24C.2 83.27.07 63.11.1 43c0-6.25.42-6.63 7-6.64h128.48c1.93-.07 3.96.34 6.86-1z" fill="url(#a6a821789-ac66-4533-8dbc-bc62eeeb8b13)"></path></svg></svg> <!----></g></g> <g transform="translate(0,35.91544151306152)"><g data-gra="path-name" fill-rule="" class="tp-name"><g transform="scale(1)"><g><path d="M5.01-4.87L5.01-4.87Q4.04-4.25 3.51-3.64 2.99-3.03 2.8-2.49 2.61-1.95 2.66-1.62 2.71-1.29 2.92-1.25L2.92-1.25Q3.41-1.81 3.98-2.78 4.56-3.76 5.01-4.87ZM11.41-8.32L11.41-8.32Q11.55-8.35 11.62-8.37 11.69-8.39 11.73-8.37 11.76-8.35 11.8-8.35L11.8-8.35Q11.83-8.32 11.87-8.32L11.87-8.32Q11.97-8.21 11.92-8.07 11.87-7.93 11.8-7.86L11.8-7.86Q11.31-7.55 10.4-7.12 9.5-6.68 8.11-6.09L8.11-6.09Q7.72-4.98 7.15-3.93 6.58-2.89 6.04-2.12 5.5-1.36 5.22-1.04L5.22-1.04Q5.22-1.04 5.05-0.89 4.87-0.73 4.58-0.56 4.28-0.38 3.9-0.3 3.51-0.21 3.1-0.31L3.1-0.31Q3.03-0.35 2.96-0.38L2.96-0.38Q2.78-0.45 2.56-0.59 2.33-0.73 2.17-1.01 2.02-1.29 2.05-1.77L2.05-1.77Q2.12-2.64 2.59-3.39 3.06-4.14 3.81-4.77 4.56-5.39 5.39-5.88L5.39-5.88Q5.88-6.92 6.19-7.97 6.51-9.01 6.65-9.78L6.65-9.78Q6.72-10.23 6.7-10.46 6.68-10.68 6.61-10.77 6.54-10.86 6.47-10.86L6.47-10.86 6.44-10.89Q5.5-11.03 4.58-9.73 3.65-8.42 2.82-6.14 1.98-3.86 1.29-1.04 0.59 1.77 0.12 4.65-0.35 7.52-0.56 9.99L-0.56 9.99Q-0.59 10.68-0.84 10.94-1.08 11.2-1.57 11.34L-1.57 11.34Q-1.74 11.38-2.14 11.26-2.54 11.13-2.96 10.93-3.38 10.72-3.55 10.51L-3.55 10.51-0.1-10.02Q-0.03-10.4 0.16-10.66 0.35-10.93 0.59-11L0.59-11Q0.8-11.1 1.11-11 1.43-10.89 1.76-10.68 2.09-10.47 2.3-10.28 2.51-10.09 2.51-10.06L2.51-10.06 1.53-4.77Q1.71-5.43 2.02-6.35 2.33-7.27 2.78-8.23 3.24-9.19 3.81-9.99 4.38-10.79 5.12-11.22 5.85-11.66 6.72-11.48L6.72-11.48Q7.69-11.27 8.14-10.8 8.59-10.33 8.68-9.69 8.77-9.05 8.65-8.32 8.53-7.59 8.35-6.89L8.35-6.89Q9.22-7.24 9.85-7.55 10.47-7.86 10.86-8.04L10.86-8.04Q11.24-8.25 11.41-8.32ZM12.67 11.52L12.67 11.52Q12.8 11.8 13.03 11.99 13.26 12.18 13.43 12.28 13.61 12.39 13.67 12.42L13.67 12.42Q14.34 12.42 15.03 10.04 15.73 7.66 16.39 3.1L16.39 3.1Q15.48 4.04 14.63 5.2 13.78 6.37 13.15 7.69L13.15 7.69Q12.87 8.28 12.68 8.94 12.49 9.6 12.46 10.25 12.42 10.89 12.67 11.52ZM19.56-1.15L19.56-1.15Q20.46-1.98 21.09-2.89 21.71-3.79 22.1-4.66 22.48-5.53 22.7-6.26 22.93-6.99 23.03-7.52L23.03-7.52Q23.1-7.76 23.14-7.93L23.14-7.93Q23.21-8.11 23.3-8.16 23.38-8.21 23.52-8.18L23.52-8.18Q23.66-8.14 23.71-8.04 23.77-7.93 23.73-7.76L23.73-7.76Q23.73-7.69 23.7-7.62L23.7-7.62Q23.59-7.2 23.35-6.39 23.1-5.57 22.63-4.49 22.17-3.41 21.4-2.24 20.63-1.08 19.49 0L19.49 0Q18.82 4.7 18.2 7.62 17.57 10.54 16.98 11.94 16.39 13.33 15.87 13.4L15.87 13.4Q15.73 13.4 15.59 13.43L15.59 13.43Q15.1 13.47 14.58 13.47 14.06 13.47 13.54 13.31 13.01 13.15 12.6 12.74 12.18 12.32 11.97 11.55L11.97 11.55Q11.66 10.26 12.04 8.87 12.42 7.48 13.24 6.11 14.06 4.73 14.96 3.57 15.87 2.4 16.6 1.57L16.6 1.57Q16.81 0.14 16.98-1.04L16.98-1.04Q17.54-4.45 17.75-6.3L17.75-6.3Q17.47-6.02 17.14-5.57 16.81-5.12 16.42-4.56L16.42-4.56Q15.83-3.69 15.15-2.82 14.48-1.95 13.85-1.41 13.22-0.87 12.7-0.97L12.7-0.97Q12.63-0.97 12.6-1.01L12.6-1.01Q12.28-1.04 11.95-1.13 11.62-1.22 11.33-1.39 11.03-1.57 10.89-1.84L10.89-1.84Q10.61-2.47 10.63-3.58 10.65-4.7 10.82-5.93 11-7.17 11.22-8.26 11.45-9.36 11.62-10.02L11.62-10.02Q11.73-10.51 11.73-10.54L11.73-10.54 11.87-10.54Q12.14-10.58 12.63-10.63 13.12-10.68 13.59-10.66 14.06-10.65 14.3-10.47L14.3-10.47Q14.37-10.37 14.39-10.28 14.41-10.2 14.37-10.09L14.37-10.09Q14.34-9.99 14.34-9.88L14.34-9.88Q14.34-9.88 14.09-8.93 13.85-7.97 13.59-6.66 13.33-5.36 13.24-4.23 13.15-3.1 13.43-2.64L13.43-2.64Q13.5-2.51 13.57-2.45 13.64-2.4 13.67-2.37L13.67-2.37Q13.71-2.37 13.74-2.33L13.74-2.33Q13.99-2.47 14.53-3.2 15.07-3.93 15.73-4.91L15.73-4.91Q16.28-5.67 16.81-6.42 17.33-7.17 17.76-7.67 18.2-8.18 18.44-8.25L18.44-8.25Q18.48-8.25 18.86-8.21 19.24-8.18 19.66-8.06 20.08-7.93 20.36-7.72L20.36-7.72Q20.39-7.66 20.39-7.62L20.39-7.62Q20.46-7.48 20.48-7.38 20.49-7.27 20.46-7.13L20.46-7.13Q20.46-7.13 20.18-5.6 19.9-4.07 19.56-1.15ZM29.75-20.91L29.75-20.91Q30.52-23.14 30.67-24.27 30.83-25.4 30.53-25.56 30.24-25.71 29.66-25.02 29.09-24.32 28.45-22.95 27.8-21.57 27.23-19.64 26.65-17.71 26.38-15.35L26.38-15.35Q26.97-15.94 27.58-16.74 28.18-17.54 28.74-18.58 29.3-19.62 29.75-20.91ZM28.99-2.75L28.99-2.75Q28.32-2.12 27.66-1.53L27.66-1.53Q26.97-0.94 26.41-0.42 25.85 0.1 25.61 0.49 25.37 0.87 25.58 1.04L25.58 1.04Q25.85 1.18 26.36 0.92 26.86 0.66 27.52-0.21 28.18-1.08 28.99-2.75ZM35.11-8.14L35.11-8.14Q35.39-8.42 35.63-8.25L35.63-8.25Q35.74-8.18 35.77-8.06 35.81-7.93 35.74-7.83L35.74-7.83Q35.25-7.27 34.62-6.73 34-6.19 33.2-5.53L33.2-5.53Q32.78-5.18 32.29-4.8L32.29-4.8Q31.63-2.71 30.57-1.17 29.51 0.38 28.38 1.22 27.25 2.05 26.45 1.95L26.45 1.95Q26.45 1.95 26.29 1.95 26.13 1.95 25.92 1.91 25.71 1.88 25.49 1.79 25.26 1.71 25.12 1.57L25.12 1.57Q24.71 1.15 24.84 0.63 24.98 0.1 25.52-0.52 26.06-1.15 26.88-1.84 27.7-2.54 28.67-3.34L28.67-3.34Q28.95-3.58 29.26-3.83L29.26-3.83Q29.4-4.18 29.59-5.15 29.79-6.12 29.92-7.24 30.06-8.35 30.03-9.15 29.99-9.95 29.65-10.02L29.65-10.02Q28.95-9.71 28.12-8.68 27.28-7.66 26.51-6.28 25.75-4.91 25.23-3.51 24.71-2.12 24.6-1.11L24.6-1.11Q24.53-0.59 24.25-0.37 23.97-0.14 23.57-0.09 23.17-0.03 22.79-0.07L22.79-0.07 22.51-0.07Q22.2-0.07 22.18-1.22 22.17-2.37 22.32-4.16 22.48-5.95 22.72-7.97 22.97-9.99 23.21-11.78 23.45-13.57 23.63-14.75L23.63-14.75Q23.66-15.03 23.7-15.24L23.7-15.24Q24.15-18.44 25.04-20.72 25.92-23 26.98-24.39 28.05-25.78 29.02-26.25 29.99-26.72 30.62-26.29 31.25-25.85 31.26-24.48 31.28-23.1 30.45-20.84L30.45-20.84Q29.82-19.21 29.09-17.97 28.36-16.74 27.63-15.87 26.9-15 26.27-14.48L26.27-14.48Q25.85-12 25.64-10.51 25.44-9.01 25.3-7.76L25.3-7.76Q25.16-6.65 24.95-5.18L24.95-5.18Q25.71-7.34 26.95-8.79 28.18-10.23 29.44-10.65L29.44-10.65Q29.86-10.75 30.29-10.68 30.72-10.61 31.11-10.47L31.11-10.47 31.14-10.47Q31.77-10.3 32.06-9.73 32.36-9.15 32.45-8.42 32.53-7.69 32.5-7.01 32.46-6.33 32.4-5.92L32.4-5.92 32.4-5.74Q33.23-6.33 34.03-7.1 34.83-7.86 35.11-8.14ZM41.86-7.76L41.86-7.76Q41.41-6.75 40.99-5.98 40.57-5.22 40.43-4.98L40.43-4.98Q39.28-3.03 38.36-1.9 37.44-0.77 36.59-0.35 35.74 0.07 34.83-0.07L34.83-0.07Q34.48-0.14 34.27-0.38 34.07-0.63 33.96-0.9 33.86-1.18 33.79-1.39L33.79-1.39Q33.75-1.46 33.75-1.53L33.75-1.53Q33.68-1.98 33.79-2.91 33.89-3.83 34.08-4.96 34.27-6.09 34.48-7.2L34.48-7.2Q34.73-8.42 34.87-9.26L34.87-9.26Q34.94-9.78 35.23-10.26 35.53-10.75 36.03-11.03 36.54-11.31 37.27-11.2L37.27-11.2Q37.27-11.2 37.28-11.19 37.3-11.17 37.34-11.15 37.37-11.13 37.42-11.08 37.48-11.03 37.49-10.94 37.51-10.86 37.51-10.72 37.51-10.58 37.48-10.4L37.48-10.4Q37.41-9.92 37.13-8.66L37.13-8.66Q36.88-7.62 36.62-6.32 36.36-5.01 36.15-3.81 35.94-2.61 35.91-1.83 35.87-1.04 36.08-0.97L36.08-0.97Q36.5-0.9 37.39-1.84 38.28-2.78 39.28-4.37 40.29-5.95 41.13-7.86L41.13-7.86Q41.2-8.04 41.27-8.09 41.34-8.14 41.41-8.16 41.48-8.18 41.51-8.18L41.51-8.18 41.58-8.18Q41.65-8.14 41.74-8.11 41.82-8.07 41.88-8 41.93-7.93 41.86-7.76ZM37.79-13.01L37.79-13.01Q37.06-12.84 36.66-13.01 36.26-13.19 36.12-13.59 35.98-13.99 36.12-14.48L36.12-14.48Q36.26-14.89 36.64-15.07 37.02-15.24 37.41-15.26 37.79-15.28 38-15.24L38-15.24Q38.21-15.17 38.21-14.7 38.21-14.23 38.08-13.71 37.96-13.19 37.79-13.01ZM46.35 1.74L46.35 1.74Q46.24 1.74 45.88 1.65 45.51 1.57 45.13 1.43 44.75 1.29 44.5 1.08L44.5 1.08Q44.16 0.7 44.3-0.31 44.43-1.32 44.82-2.61 45.2-3.9 45.58-5.05L45.58-5.05Q46-6.37 46.14-6.96L46.14-6.96Q46.17-7.17 46.21-7.38L46.21-7.38Q46.31-7.9 46.33-8.26 46.35-8.63 46.17-8.87L46.17-8.87Q45.27-7.79 44.63-6.79 43.98-5.78 43.53-4.87 43.08-3.97 42.76-3.2L42.76-3.2Q42.45-2.51 42.19-1.98 41.93-1.46 41.63-1.2 41.34-0.94 40.95-0.97L40.95-0.97Q40.57-1.01 40.22-1.17 39.88-1.32 39.63-1.57 39.39-1.81 39.39-2.16L39.39-2.16Q39.39-3.44 39.77-5.34 40.15-7.24 40.57-8.82 40.99-10.4 41.16-10.75L41.16-10.75Q41.34-10.82 41.7-10.91 42.07-11 42.47-11 42.87-11 43.13-10.84 43.39-10.68 43.36-10.3L43.36-10.3Q43.22-9.74 43.04-9.05L43.04-9.05Q42.63-7.31 42.26-5.57 41.89-3.83 41.89-3.1L41.89-3.1Q42.17-3.72 42.66-4.71 43.15-5.71 43.76-6.77 44.36-7.83 45.03-8.63 45.69-9.43 46.28-9.64L46.28-9.64Q46.52-9.67 46.82-9.6 47.11-9.53 47.43-9.43L47.43-9.43Q47.43-9.39 47.46-9.39L47.46-9.39Q48.16-8.98 48.42-8.54 48.68-8.11 48.68-7.64 48.68-7.17 48.58-6.65L48.58-6.65Q48.58-6.51 48.54-6.37L48.54-6.37Q48.47-5.95 48.23-5.06 47.98-4.18 47.71-3.13L47.71-3.13Q47.43-2.16 47.18-1.25 46.94-0.35 46.8 0.23 46.66 0.8 46.73 0.84L46.73 0.84 46.8 0.87Q46.97 0.9 47.62 0.35 48.26-0.21 49.13-1.32 50-2.44 50.87-4.07 51.74-5.71 52.33-7.83L52.33-7.83Q52.4-8 52.49-8.04 52.58-8.07 52.68-8.04L52.68-8.04Q52.79-8 52.89-7.92 52.99-7.83 52.96-7.66L52.96-7.66Q52.19-5.08 51.18-3.25 50.18-1.43 49.18-0.3 48.19 0.84 47.43 1.32 46.66 1.81 46.35 1.74ZM56.3-4.56L56.3-4.56Q56.47-6.05 56.68-7.38L56.68-7.38Q56.82-8.32 56.96-9.46L56.96-9.46Q56.47-10.26 55.87-10.16 55.26-10.06 54.65-9.12 54.04-8.18 53.59-6.47L53.59-6.47Q53.24-5.01 53.2-4.02 53.17-3.03 53.41-2.47L53.41-2.47Q53.79-1.77 54.19-1.79 54.6-1.81 55-2.26 55.4-2.71 55.73-3.34 56.06-3.97 56.3-4.56ZM63.19-24.5L63.19-24.5Q62.91-24.71 62.62-24.11 62.32-23.52 62.02-22.41 61.73-21.3 61.43-19.89 61.14-18.48 60.86-17.05L60.86-17.05Q60.68-16.18 60.55-15.41L60.55-15.41Q61-16.04 61.55-16.95 62.11-17.85 62.6-18.93L62.6-18.93Q62.63-19.07 62.74-19.28L62.74-19.28Q62.91-19.76 63.17-20.49 63.43-21.23 63.59-22.01 63.75-22.79 63.68-23.45 63.61-24.11 63.19-24.5ZM63.4-7.72L63.4-7.72Q63.43-7.97 63.54-8.06 63.64-8.14 63.78-8.07L63.78-8.07Q63.92-8 63.97-7.83 64.02-7.66 63.96-7.48L63.96-7.48Q63.33-5.08 62.62-3.53 61.9-1.98 61.19-1.1 60.48-0.21 59.85 0.17 59.22 0.56 58.74 0.63 58.25 0.7 57.97 0.59L57.97 0.59Q57.55 0.45 57.17 0.1 56.79-0.24 56.54-0.89 56.3-1.53 56.23-2.61L56.23-2.61Q55.74-1.77 55.1-1.11 54.46-0.45 53.76-0.19 53.06 0.07 52.39-0.28 51.71-0.63 51.15-1.81L51.15-1.81Q50.73-2.71 50.84-4.18 50.94-5.64 51.39-7.13L51.39-7.13Q52.02-8.8 52.86-9.74 53.69-10.68 54.56-11 55.43-11.31 56.13-11.08 56.82-10.86 57.14-10.16L57.14-10.16Q57.45-11.94 57.99-14.67 58.53-17.4 58.87-18.82L58.87-18.82Q59.36-20.77 59.92-22.27 60.48-23.77 61.17-24.55 61.87-25.33 62.77-25.19L62.77-25.19 62.81-25.19Q62.91-25.16 63.15-25.07 63.4-24.98 63.68-24.72 63.96-24.46 64.16-23.97L64.16-23.97Q64.3-23.52 64.22-22.62 64.13-21.71 63.87-20.67 63.61-19.62 63.22-18.76L63.22-18.76Q62.77-17.64 62.28-16.81 61.8-15.97 61.33-15.35 60.86-14.72 60.44-14.27L60.44-14.27Q59.54-9.81 59.1-6.82 58.67-3.83 58.75-2.35 58.84-0.87 59.54-0.87L59.54-0.87Q59.71-0.84 60.08-0.99 60.44-1.15 60.95-1.81 61.45-2.47 62.08-3.88 62.7-5.29 63.4-7.72ZM65-20.25L65-20.25Q64.89-20.29 64.86-20.39 64.83-20.49 64.86-20.67L64.86-20.67Q65.03-21.19 65.43-21.45 65.83-21.71 66.43-21.75L66.43-21.75Q66.98-21.78 68.25-21.75 69.52-21.71 70.57-21.57L70.57-21.57Q70.64-20.88 70.27-18.3 69.91-15.73 69.35-12.37 68.79-9.01 68.24-5.98L68.24-5.98Q67.82-3.51 67.56-1.95 67.3-0.38 67.33-0.31L67.33-0.31Q67.33-0.31 66.88-0.33 66.43-0.35 65.83-0.42 65.24-0.49 64.76-0.64 64.27-0.8 64.13-1.08L64.13-1.08Q63.96-1.64 64.22-3.65 64.48-5.67 64.98-8.42 65.49-11.17 66.04-13.95L66.04-13.95Q66.53-16.49 66.9-18.44 67.26-20.39 67.3-21.12L67.3-21.12Q66.46-21.19 66.04-21.05 65.63-20.91 65.42-20.46L65.42-20.46Q65.31-20.32 65.24-20.27 65.17-20.22 65.1-20.22 65.03-20.22 65-20.25ZM74.88-20.25L74.88-20.25Q74.78-20.29 74.74-20.39 74.71-20.49 74.74-20.67L74.74-20.67Q74.92-21.19 75.32-21.45 75.72-21.71 76.31-21.75L76.31-21.75Q76.86-21.78 78.13-21.75 79.4-21.71 80.45-21.57L80.45-21.57Q80.52-20.88 80.15-18.3 79.79-15.73 79.23-12.37 78.67-9.01 78.12-5.98L78.12-5.98Q77.7-3.51 77.44-1.95 77.18-0.38 77.21-0.31L77.21-0.31Q77.21-0.31 76.76-0.33 76.31-0.35 75.72-0.42 75.12-0.49 74.64-0.64 74.15-0.8 74.01-1.08L74.01-1.08Q73.84-1.64 74.1-3.65 74.36-5.67 74.86-8.42 75.37-11.17 75.92-13.95L75.92-13.95Q76.41-16.49 76.78-18.44 77.14-20.39 77.18-21.12L77.18-21.12Q76.34-21.19 75.92-21.05 75.51-20.91 75.3-20.46L75.3-20.46Q75.19-20.32 75.12-20.27 75.06-20.22 74.99-20.22 74.92-20.22 74.88-20.25ZM98.99-7.79L98.99-7.79Q98.99-7.79 98.98-7.53 98.96-7.27 98.86-6.92 98.75-6.58 98.54-6.3L98.54-6.3Q98.54-6.3 97.22-6.12 95.9-5.95 93.67-5.88 91.44-5.81 88.66-6.05L88.66-6.05 88.94-7.24Q92-7.55 94.25-7.67 96.49-7.79 97.74-7.79 98.99-7.79 98.99-7.79ZM112.32-21.09L112.32-21.09Q111.8-19.24 111.26-16.88 110.72-14.51 110.25-12.04 109.78-9.57 109.54-7.39 109.29-5.22 109.36-3.76 109.43-2.3 109.96-1.91L109.96-1.91Q111.1-1.29 112.08-1.77 113.05-2.26 113.84-3.5 114.62-4.73 115.21-6.39 115.8-8.04 116.24-9.76 116.67-11.48 116.95-12.94 117.23-14.41 117.33-15.28L117.33-15.28Q117.51-16.7 117.51-18.25 117.51-19.8 117.26-21.3 117.02-22.79 116.51-23.97 116.01-25.16 115.16-25.85 114.31-26.55 113.12-26.51L113.12-26.51Q111.56-26.41 110.32-25.73 109.09-25.05 108.2-23.96 107.31-22.86 106.7-21.57 106.09-20.29 105.75-18.98 105.4-17.68 105.29-16.56L105.29-16.56Q105.26-16.04 105.14-15.9 105.01-15.76 104.84-15.76L104.84-15.76Q104.6-15.8 104.54-16.08 104.49-16.35 104.49-16.67L104.49-16.67Q104.46-17.15 104.61-18.08 104.77-19 105.15-20.16 105.54-21.33 106.21-22.55 106.89-23.77 107.87-24.81 108.84-25.85 110.2-26.51L110.2-26.51Q112.18-27.45 113.85-27.16 115.52-26.86 116.65-25.4 117.78-23.94 118.25-21.45 118.72-18.96 118.31-15.59L118.31-15.59Q117.82-11.69 117.04-8.87 116.25-6.05 115.38-4.28 114.51-2.51 113.78-1.77L113.78-1.77Q113.12-0.8 111.92-0.37 110.72 0.07 109.36 0 108.01-0.07 106.89-0.59L106.89-0.59Q105.68-1.29 105.19-2.96 104.7-4.63 104.77-6.87 104.84-9.12 105.28-11.57 105.71-14.02 106.3-16.27 106.89-18.51 107.49-20.16 108.08-21.82 108.46-22.48L108.46-22.48Q108.91-23.21 109.43-23.4 109.96-23.59 110.48-23.4 111-23.21 111.43-22.81 111.87-22.41 112.11-21.94 112.36-21.47 112.32-21.09ZM125.47-4.87L125.47-4.87Q124.5-4.25 123.98-3.64 123.46-3.03 123.27-2.49 123.07-1.95 123.13-1.62 123.18-1.29 123.39-1.25L123.39-1.25Q123.87-1.81 124.45-2.78 125.02-3.76 125.47-4.87ZM131.88-8.32L131.88-8.32Q132.02-8.35 132.09-8.37 132.16-8.39 132.19-8.37 132.23-8.35 132.26-8.35L132.26-8.35Q132.29-8.32 132.33-8.32L132.33-8.32Q132.43-8.21 132.38-8.07 132.33-7.93 132.26-7.86L132.26-7.86Q131.77-7.55 130.87-7.12 129.96-6.68 128.57-6.09L128.57-6.09Q128.19-4.98 127.61-3.93 127.04-2.89 126.5-2.12 125.96-1.36 125.68-1.04L125.68-1.04Q125.68-1.04 125.51-0.89 125.34-0.73 125.04-0.56 124.74-0.38 124.36-0.3 123.98-0.21 123.56-0.31L123.56-0.31Q123.49-0.35 123.42-0.38L123.42-0.38Q123.25-0.45 123.02-0.59 122.8-0.73 122.64-1.01 122.48-1.29 122.52-1.77L122.52-1.77Q122.59-2.64 123.06-3.39 123.53-4.14 124.27-4.77 125.02-5.39 125.86-5.88L125.86-5.88Q126.34-6.92 126.66-7.97 126.97-9.01 127.11-9.78L127.11-9.78Q127.18-10.23 127.16-10.46 127.14-10.68 127.08-10.77 127.01-10.86 126.94-10.86L126.94-10.86 126.9-10.89Q125.96-11.03 125.04-9.73 124.12-8.42 123.28-6.14 122.45-3.86 121.75-1.04 121.06 1.77 120.59 4.65 120.12 7.52 119.91 9.99L119.91 9.99Q119.87 10.68 119.63 10.94 119.39 11.2 118.9 11.34L118.9 11.34Q118.72 11.38 118.32 11.26 117.92 11.13 117.51 10.93 117.09 10.72 116.91 10.51L116.91 10.51 120.36-10.02Q120.43-10.4 120.62-10.66 120.81-10.93 121.06-11L121.06-11Q121.26-11.1 121.58-11 121.89-10.89 122.22-10.68 122.55-10.47 122.76-10.28 122.97-10.09 122.97-10.06L122.97-10.06 121.99-4.77Q122.17-5.43 122.48-6.35 122.8-7.27 123.25-8.23 123.7-9.19 124.27-9.99 124.85-10.79 125.58-11.22 126.31-11.66 127.18-11.48L127.18-11.48Q128.15-11.27 128.61-10.8 129.06-10.33 129.15-9.69 129.23-9.05 129.11-8.32 128.99-7.59 128.82-6.89L128.82-6.89Q129.68-7.24 130.31-7.55 130.94-7.86 131.32-8.04L131.32-8.04Q131.7-8.25 131.88-8.32ZM137.03-8.28L137.03-8.28Q137.06-8.35 137.15-8.68 137.24-9.01 137.22-9.36 137.2-9.71 136.96-9.92L136.96-9.92Q136.75-10.06 136.54-10.02 136.33-9.99 136.17-9.88 136.02-9.78 135.91-9.67L135.91-9.67Q135.67-9.43 135.32-8.87 134.97-8.32 134.68-7.74 134.38-7.17 134.28-6.82L134.28-6.82Q135.08-6.54 135.62-6.73 136.16-6.92 136.49-7.36 136.82-7.79 137.03-8.28ZM140.68-7.9L140.68-7.9Q140.75-8.07 140.85-8.16 140.96-8.25 141.1-8.21L141.1-8.21Q141.38-8.18 141.27-7.76L141.27-7.76Q140.61-5.85 139.79-4.28 138.98-2.71 137.98-1.64 136.99-0.56 135.79-0.12 134.59 0.31 133.2 0L133.2 0Q132.09-0.28 131.55-1.3 131.01-2.33 131.04-3.91 131.08-5.5 131.7-7.41L131.7-7.41Q132.12-8.63 132.82-9.53 133.51-10.44 134.36-10.84 135.22-11.24 136.12-11L136.12-11Q136.75-10.82 137.22-10.44 137.69-10.06 137.81-9.43 137.93-8.8 137.55-7.93L137.55-7.93Q137.31-7.38 136.85-6.87 136.4-6.37 135.69-6.12 134.97-5.88 134-6.16L134-6.16Q133.62-4.8 133.5-3.9 133.37-2.99 133.41-2.42 133.44-1.84 133.62-1.51 133.79-1.18 133.96-1.01L133.96-1.01Q134.66-0.49 135.48-0.73 136.3-0.97 137.11-1.76 137.93-2.54 138.66-3.62 139.39-4.7 139.93-5.83 140.47-6.96 140.68-7.9ZM145.76 1.74L145.76 1.74Q145.66 1.74 145.29 1.65 144.93 1.57 144.54 1.43 144.16 1.29 143.92 1.08L143.92 1.08Q143.57 0.7 143.71-0.31 143.85-1.32 144.23-2.61 144.61-3.9 145-5.05L145-5.05Q145.41-6.37 145.55-6.96L145.55-6.96Q145.59-7.17 145.62-7.38L145.62-7.38Q145.73-7.9 145.74-8.26 145.76-8.63 145.59-8.87L145.59-8.87Q144.68-7.79 144.04-6.79 143.39-5.78 142.94-4.87 142.49-3.97 142.18-3.2L142.18-3.2Q141.86-2.51 141.6-1.98 141.34-1.46 141.05-1.2 140.75-0.94 140.37-0.97L140.37-0.97Q139.98-1.01 139.64-1.17 139.29-1.32 139.05-1.57 138.8-1.81 138.8-2.16L138.8-2.16Q138.8-3.44 139.18-5.34 139.57-7.24 139.98-8.82 140.4-10.4 140.58-10.75L140.58-10.75Q140.75-10.82 141.12-10.91 141.48-11 141.88-11 142.28-11 142.54-10.84 142.8-10.68 142.77-10.3L142.77-10.3Q142.63-9.74 142.46-9.05L142.46-9.05Q142.04-7.31 141.67-5.57 141.31-3.83 141.31-3.1L141.31-3.1Q141.59-3.72 142.07-4.71 142.56-5.71 143.17-6.77 143.78-7.83 144.44-8.63 145.1-9.43 145.69-9.64L145.69-9.64Q145.93-9.67 146.23-9.6 146.53-9.53 146.84-9.43L146.84-9.43Q146.84-9.39 146.87-9.39L146.87-9.39Q147.57-8.98 147.83-8.54 148.09-8.11 148.09-7.64 148.09-7.17 147.99-6.65L147.99-6.65Q147.99-6.51 147.95-6.37L147.95-6.37Q147.88-5.95 147.64-5.06 147.4-4.18 147.12-3.13L147.12-3.13Q146.84-2.16 146.6-1.25 146.35-0.35 146.21 0.23 146.07 0.8 146.14 0.84L146.14 0.84 146.21 0.87Q146.39 0.9 147.03 0.35 147.67-0.21 148.54-1.32 149.41-2.44 150.28-4.07 151.15-5.71 151.75-7.83L151.75-7.83Q151.82-8 151.9-8.04 151.99-8.07 152.09-8.04L152.09-8.04Q152.2-8 152.3-7.92 152.41-7.83 152.37-7.66L152.37-7.66Q151.61-5.08 150.6-3.25 149.59-1.43 148.6-0.3 147.6 0.84 146.84 1.32 146.07 1.81 145.76 1.74ZM162.18-0.97L162.18-0.97Q161.31-1.5 160.48-2.11 159.64-2.71 158.86-3.53 158.08-4.35 157.31-5.55 156.55-6.75 155.82-8.49L155.82-8.49Q155.57-6.82 155.36-4.91L155.36-4.91Q155.12-3.03 154.93-1.69 154.74-0.35 154.63-0.24L154.63-0.24Q154.11 0 153.49 0.02 152.86 0.03 152.37-0.07 151.88-0.17 151.71-0.28L151.71-0.28Q151.29-0.52 151.29-2.07 151.29-3.62 151.61-6 151.92-8.39 152.41-11.17 152.89-13.95 153.43-16.67 153.97-19.38 154.42-21.57L154.42-21.57Q155.16-25.02 155.26-25.89L155.26-25.89Q155.26-25.89 155.61-25.87 155.96-25.85 156.43-25.82 156.9-25.78 157.33-25.71 157.77-25.64 157.97-25.51L157.97-25.51Q158.29-25.33 158.46-25.04 158.64-24.74 158.64-24.03 158.64-23.31 158.41-21.82 158.18-20.32 157.7-17.71 157.21-15.1 156.37-11.07L156.37-11.07Q158.01-12.7 160.5-15.73 162.98-18.76 167.23-24.11L167.23-24.11Q167.51-24.53 167.82-24.77 168.13-25.02 168.34-24.91L168.34-24.91Q168.48-24.84 168.57-24.67 168.66-24.5 168.45-24.22L168.45-24.22Q167.96-23.63 167.51-23.07L167.51-23.07Q162.78-17.19 159.89-13.69 157-10.2 156.34-9.78L156.34-9.78Q156.97-7.86 158.01-6.3 159.05-4.73 160.38-3.5 161.7-2.26 163.12-1.39L163.12-1.39Q163.26-1.29 163.26-1.17 163.26-1.04 163.19-0.92 163.12-0.8 163.02-0.73L163.02-0.73Q162.95-0.66 162.86-0.66 162.78-0.66 162.62-0.73 162.46-0.8 162.18-0.97ZM173.42-9.95L173.42-9.95Q173.21-9.78 172.71-9.08 172.21-8.39 171.61-7.31 171.02-6.23 170.54-4.91 170.05-3.58 169.87-2.19L169.87-2.19 169.87-2.02Q169.84-1.71 169.89-1.41 169.94-1.11 170.17-0.96 170.4-0.8 170.95-0.94L170.95-0.94Q171.47-1.08 172.26-1.5 173.04-1.91 173.95-2.7 174.85-3.48 175.75-4.7L175.75-4.7Q175.82-4.77 175.89-4.87L175.89-4.87Q176.03-5.12 176.22-5.27 176.42-5.43 176.69-5.32L176.69-5.32Q177.01-5.15 177.01-4.92 177.01-4.7 176.83-4.52L176.83-4.52Q176.14-3.65 175.18-2.68 174.22-1.71 173.08-0.92 171.93-0.14 170.62 0.17 169.32 0.49 167.93 0.1L167.93 0.1Q166.6-0.31 166.26-1.3 165.91-2.3 166.31-3.58 166.71-4.87 167.6-6.23 168.48-7.59 169.63-8.77 170.78-9.95 171.96-10.72L171.96-10.72Q171.09-10.96 170.22-11.31 169.35-11.66 168.59-12.14 167.82-12.63 167.3-13.31 166.78-13.99 166.62-14.86 166.46-15.73 166.81-16.88L166.81-16.88Q167.61-19.17 169.04-20.9 170.47-22.62 172.26-23.77 174.05-24.91 175.89-25.47 177.74-26.03 179.37-26.03 181.01-26.03 182.12-25.44L182.12-25.44Q183.48-24.64 183.62-23.61 183.76-22.58 182.77-21.59 181.77-20.6 179.65-19.87L179.65-19.87Q179.1-19.66 178.87-19.68 178.64-19.69 178.57-19.87L178.57-19.87Q178.47-19.94 178.5-20.11 178.54-20.29 178.71-20.39L178.71-20.39Q178.99-20.53 179.48-20.7L179.48-20.7Q180.03-20.91 180.68-21.21 181.32-21.5 181.84-21.9 182.37-22.3 182.56-22.83 182.75-23.35 182.4-24.04L182.4-24.04Q181.95-24.77 180.92-24.72 179.9-24.67 178.56-24.04 177.22-23.42 175.82-22.39 174.43-21.36 173.25-20.11 172.07-18.86 171.34-17.59 170.61-16.32 170.59-15.21 170.57-14.09 171.53-13.33 172.48-12.56 174.68-12.32L174.68-12.32Q174.95-12.42 175.2-12.23 175.44-12.04 175.44-11.76 175.44-11.48 175.02-11.27L175.02-11.27Q174.78-11.17 174.52-10.96 174.26-10.75 174-10.51 173.74-10.26 173.58-10.11 173.42-9.95 173.42-9.95Z" transform="translate(3.549999952316284, 27.228374481201172)"></path></g> <!----> <!----> <!----> <!----> <!----> <!----> <!----></g></g> <!----></g></g></g><defs v-gra="od"></defs></svg>